<mxfile host="app.diagrams.net" modified="2023-04-26T13:27:29.409Z" agent="Mozilla/5.0 (Windows NT 10.0; Win64; x64) AppleWebKit/537.36 (KHTML, like Gecko) Chrome/112.0.0.0 Safari/537.36" etag="8XzcYzAUOypLWDW9mawT" version="21.1.7" type="onedrive">
  <diagram name="Page-1" id="bC2gnG4DiGqVNCLY0rfi">
    <mxGraphModel grid="1" page="1" gridSize="10" guides="1" tooltips="1" connect="1" arrows="1" fold="1" pageScale="1" pageWidth="1654" pageHeight="1169" math="0" shadow="0">
      <root>
        <mxCell id="0" />
        <mxCell id="1" parent="0" />
        <mxCell id="vjHuk9BXF6nxpI5VjyQP-1" value="" style="rounded=0;whiteSpace=wrap;html=1;" vertex="1" parent="1">
          <mxGeometry x="180" y="90" width="540" height="310" as="geometry" />
        </mxCell>
        <mxCell id="vjHuk9BXF6nxpI5VjyQP-2" value="&lt;b&gt;&lt;font style=&quot;font-size: 13px;&quot;&gt;1. Home page&lt;/font&gt;&lt;/b&gt;" style="text;html=1;align=center;verticalAlign=middle;resizable=0;points=[];autosize=1;strokeColor=none;fillColor=none;" vertex="1" parent="1">
          <mxGeometry x="170" y="60" width="110" height="30" as="geometry" />
        </mxCell>
        <mxCell id="sFc8jUiMXnoDbdj5g7ks-3" value="&lt;div style=&quot;text-align: justify;&quot;&gt;&lt;/div&gt;" style="rounded=0;whiteSpace=wrap;html=1;align=left;" vertex="1" parent="1">
          <mxGeometry x="310" y="220" width="250" height="90" as="geometry" />
        </mxCell>
        <mxCell id="sFc8jUiMXnoDbdj5g7ks-4" value="&lt;u&gt;Login&lt;/u&gt;" style="text;html=1;align=center;verticalAlign=middle;resizable=0;points=[];autosize=1;strokeColor=none;fillColor=none;" vertex="1" parent="1">
          <mxGeometry x="590" y="90" width="50" height="30" as="geometry" />
        </mxCell>
        <mxCell id="sFc8jUiMXnoDbdj5g7ks-5" value="Don&#39;t have an account? &lt;u&gt;Sign up&lt;/u&gt;" style="text;html=1;align=center;verticalAlign=middle;resizable=0;points=[];autosize=1;strokeColor=none;fillColor=none;" vertex="1" parent="1">
          <mxGeometry x="460" y="110" width="190" height="30" as="geometry" />
        </mxCell>
        <mxCell id="sFc8jUiMXnoDbdj5g7ks-8" value="&lt;b&gt;About the platform&lt;/b&gt;" style="text;html=1;align=center;verticalAlign=middle;resizable=0;points=[];autosize=1;strokeColor=none;fillColor=none;" vertex="1" parent="1">
          <mxGeometry x="200" y="320" width="130" height="30" as="geometry" />
        </mxCell>
        <mxCell id="sFc8jUiMXnoDbdj5g7ks-9" value="&lt;b&gt;Contact us&lt;/b&gt;" style="text;html=1;align=center;verticalAlign=middle;resizable=0;points=[];autosize=1;strokeColor=none;fillColor=none;" vertex="1" parent="1">
          <mxGeometry x="390" y="320" width="90" height="30" as="geometry" />
        </mxCell>
        <mxCell id="sFc8jUiMXnoDbdj5g7ks-10" value="&lt;b&gt;Social Media platforms&lt;/b&gt;" style="text;html=1;align=center;verticalAlign=middle;resizable=0;points=[];autosize=1;strokeColor=none;fillColor=none;" vertex="1" parent="1">
          <mxGeometry x="540" y="320" width="150" height="30" as="geometry" />
        </mxCell>
        <mxCell id="sFc8jUiMXnoDbdj5g7ks-11" value="&lt;b&gt;Site Announcements&lt;/b&gt;" style="text;html=1;align=center;verticalAlign=middle;resizable=0;points=[];autosize=1;strokeColor=none;fillColor=none;" vertex="1" parent="1">
          <mxGeometry x="360" y="190" width="140" height="30" as="geometry" />
        </mxCell>
        <mxCell id="sFc8jUiMXnoDbdj5g7ks-15" value="&lt;b&gt;2. Chatbot (i)&lt;/b&gt;" style="text;html=1;align=center;verticalAlign=middle;resizable=0;points=[];autosize=1;strokeColor=none;fillColor=none;" vertex="1" parent="1">
          <mxGeometry x="800" y="60" width="100" height="30" as="geometry" />
        </mxCell>
        <mxCell id="sFc8jUiMXnoDbdj5g7ks-84" value="" style="rounded=0;whiteSpace=wrap;html=1;" vertex="1" parent="1">
          <mxGeometry x="810" y="90" width="540" height="310" as="geometry" />
        </mxCell>
        <mxCell id="sFc8jUiMXnoDbdj5g7ks-87" value="&lt;div style=&quot;text-align: justify;&quot;&gt;&lt;/div&gt;" style="rounded=0;whiteSpace=wrap;html=1;align=left;" vertex="1" parent="1">
          <mxGeometry x="940" y="220" width="250" height="90" as="geometry" />
        </mxCell>
        <mxCell id="sFc8jUiMXnoDbdj5g7ks-88" value="&lt;u&gt;Login&lt;/u&gt;" style="text;html=1;align=center;verticalAlign=middle;resizable=0;points=[];autosize=1;strokeColor=none;fillColor=none;" vertex="1" parent="1">
          <mxGeometry x="1220" y="90" width="50" height="30" as="geometry" />
        </mxCell>
        <mxCell id="sFc8jUiMXnoDbdj5g7ks-89" value="Don&#39;t have an account? &lt;u&gt;Sign up&lt;/u&gt;" style="text;html=1;align=center;verticalAlign=middle;resizable=0;points=[];autosize=1;strokeColor=none;fillColor=none;" vertex="1" parent="1">
          <mxGeometry x="1090" y="110" width="190" height="30" as="geometry" />
        </mxCell>
        <mxCell id="sFc8jUiMXnoDbdj5g7ks-92" value="&lt;b&gt;About the platform&lt;/b&gt;" style="text;html=1;align=center;verticalAlign=middle;resizable=0;points=[];autosize=1;strokeColor=none;fillColor=none;" vertex="1" parent="1">
          <mxGeometry x="830" y="320" width="130" height="30" as="geometry" />
        </mxCell>
        <mxCell id="sFc8jUiMXnoDbdj5g7ks-93" value="&lt;b&gt;Contact us&lt;/b&gt;" style="text;html=1;align=center;verticalAlign=middle;resizable=0;points=[];autosize=1;strokeColor=none;fillColor=none;" vertex="1" parent="1">
          <mxGeometry x="1020" y="320" width="90" height="30" as="geometry" />
        </mxCell>
        <mxCell id="sFc8jUiMXnoDbdj5g7ks-94" value="&lt;b&gt;Social Media platforms&lt;/b&gt;" style="text;html=1;align=center;verticalAlign=middle;resizable=0;points=[];autosize=1;strokeColor=none;fillColor=none;" vertex="1" parent="1">
          <mxGeometry x="1170" y="320" width="150" height="30" as="geometry" />
        </mxCell>
        <mxCell id="sFc8jUiMXnoDbdj5g7ks-95" value="&lt;b&gt;Site Announcements&lt;/b&gt;" style="text;html=1;align=center;verticalAlign=middle;resizable=0;points=[];autosize=1;strokeColor=none;fillColor=none;" vertex="1" parent="1">
          <mxGeometry x="990" y="190" width="140" height="30" as="geometry" />
        </mxCell>
        <mxCell id="sFc8jUiMXnoDbdj5g7ks-96" value="" style="rounded=0;whiteSpace=wrap;html=1;" vertex="1" parent="1">
          <mxGeometry x="1020" y="170" width="300" height="200" as="geometry" />
        </mxCell>
        <mxCell id="sFc8jUiMXnoDbdj5g7ks-97" value="&lt;b style=&quot;font-size: 14px;&quot;&gt;NUST Chatbot&lt;/b&gt;" style="rounded=1;whiteSpace=wrap;html=1;strokeColor=none;fontSize=14;" vertex="1" parent="1">
          <mxGeometry x="1085" y="180" width="170" height="20" as="geometry" />
        </mxCell>
        <mxCell id="sFc8jUiMXnoDbdj5g7ks-98" value="" style="rounded=0;whiteSpace=wrap;html=1;" vertex="1" parent="1">
          <mxGeometry x="1030" y="210" width="280" height="150" as="geometry" />
        </mxCell>
        <mxCell id="sFc8jUiMXnoDbdj5g7ks-102" value="" style="shape=image;verticalLabelPosition=bottom;labelBackgroundColor=default;verticalAlign=top;aspect=fixed;imageAspect=0;image=data:image/png,iVBORw0KGgoAAAANSUhEUgAAAH0AAAB9CAMAAAC4XpwXAAAAZlBMVEX///8AAADMzMzf398ICAj5+fnS0tLV1dVgYGC6urrp6en8/PyTk5NlZWVYWFiwsLAXFxcvLy80NDRqamqCgoJLS0vBwcF0dHRGRkZ6enqnp6cPDw85OTmZmZnx8fEpKSkfHx+Li4vYg6BoAAAEvElEQVRoge1a2ZLiMAwEQshJwn0ESOD/f3LDNUSygiU5hKma7ap92cLpkdWSLNmDAQfxKDptw938MJzNd+G+iCYxa50zEi9aVuMhxmG+33if5vZOO5P5idm6+OAW+HnYyvzcgmn0IfLibOO+4fgB/uTEor5vQNExeTTnk9dYTDrk9qYi7itWnekvEnPXqEbdkK805DXSDrg9mceb2JWu5JOZmrwOPsfsN3LgrrEIXMg3buR18nWgf2d5tUzzKNpEeZ6G75KgOvImbV9cpyic/M1l0Wa9kt6jBTenE0kSrOgtUCqfDLVj0f6xMiWXTDXkZJIp/Ldrygu16CQnp9Lr1O5Db0esEwvfIz6Ss1amxMpEyG5WtYqbuEamWi8ycnPfj+893oR3NFaLUm5iiDfjk9cHboM+lOy9cYwSWH5FaRi/Eaw2fC4jr63HX9jx1xZObrvBqE9s432cMnmhBoEDj218jhaqUmWyRl/hnvNwx6KrUgH6yp63DKc5bW+ACwVvFQo3YbC94CN2VoeVoDqhb4uQ8UvOGg+2yHP9sRi7kLOJKMWv1OSDQQY/xSm0S7jEpR9DKYfT3FRgxdqBfFDCo2ZoXxFDt7s1Y3AfGRJCZ3i3ThRlTbsXkeicyLHq7bKDuaZyYy/hKcWeOrbg96wM0Y4Expw9emGJcZ0AQFvsxRLmWU1lbwIm28z6e+gp19lbKmQ/dMp+ErKDn4uOohRgwNsTJ2xE+rYd+t1VdRch+3c1/91434PfM4riO/gw19ltgX3M2Y29hIcFu4ZRjdMeaO9AZ3p7jUNjMreARw2hvb7HMNkJpw4IUMI7xkbCgF9IRy5NxNDtW8YSKHr5vKkBpCFOX4KOwS7nedTGcqYAaEB67qyXqVhORH+xPt0tNR9CYaJu5PDshqcgFHPqoIM5fjhjLsNzSt3tCr5a4M6K8aBSMO16wUcTwzHbgXjUqBEe2ndB5BpTWnk3h0d+Y4H7kO6GM6nrjfskSdIyhpVH2RDBmO7L7oaMG6ajJOo9vHfCyxE86htKRijmNd5CRE7eCXEPGobb5BkDleYbUk6Z8HGoDTURS92Cru2pemTeiqgmT9Td0nD1/nAUE4YrazR1s1bzt/vQW1ILDroyURKbeEW2oYyJIzyQf4A5GTdtabtXXixzr3xJ0C+DIiRU+oDiIvSG4M2zh3m2XaWn/HRZbbN25hsu+RVyBxBJRw85fezy6AND/gApppXPwgG1BmN5oS7lr5weOHv4kmWmmPoKXpc1sb7G5QX9p6IzUmnvntvx1Z7mhJpgE6xYPFgMdoX06sRjfdPYxOwnwZjsCunV5m/Y4h83nsSY7Crp1eDxj0EZItiHY2VTPtoTH4OGnWAFoh6PaJujGhFZRe+oUtMqml7/7NIP0tB8U7TbFh558JpQr39V0vtBGQfFappl2br+N02jIG4/8xAPYNTSU4B+J9flm9e3oHPlx998P9G19IT4gPQk+Lb0SOudnpxK8Cul15v1f1x65Ob3F/e/UXr/s14/9P+znoH+rP/b0vvu5pNZz/G+XQBCev2RE1lv6XbbLgSSXr/kKOuFPZODrOf0glKJH+n1KbgXHlmvb58/cZPet8hvWa9/wb0QNHz+D0WJNI7Z/u6XAAAAAElFTkSuQmCC;" vertex="1" parent="1">
          <mxGeometry x="1175" y="330" width="20" height="20" as="geometry" />
        </mxCell>
        <mxCell id="sFc8jUiMXnoDbdj5g7ks-103" value="" style="rounded=1;whiteSpace=wrap;html=1;" vertex="1" parent="1">
          <mxGeometry x="1040" y="215" width="250" height="105" as="geometry" />
        </mxCell>
        <mxCell id="sFc8jUiMXnoDbdj5g7ks-111" value="" style="rounded=0;whiteSpace=wrap;html=1;" vertex="1" parent="1">
          <mxGeometry x="1440" y="90" width="540" height="310" as="geometry" />
        </mxCell>
        <mxCell id="sFc8jUiMXnoDbdj5g7ks-114" value="&lt;div style=&quot;text-align: justify;&quot;&gt;&lt;/div&gt;" style="rounded=0;whiteSpace=wrap;html=1;align=left;" vertex="1" parent="1">
          <mxGeometry x="1570" y="220" width="250" height="90" as="geometry" />
        </mxCell>
        <mxCell id="sFc8jUiMXnoDbdj5g7ks-115" value="&lt;u&gt;Login&lt;/u&gt;" style="text;html=1;align=center;verticalAlign=middle;resizable=0;points=[];autosize=1;strokeColor=none;fillColor=none;" vertex="1" parent="1">
          <mxGeometry x="1850" y="90" width="50" height="30" as="geometry" />
        </mxCell>
        <mxCell id="sFc8jUiMXnoDbdj5g7ks-116" value="Don&#39;t have an account? &lt;u&gt;Sign up&lt;/u&gt;" style="text;html=1;align=center;verticalAlign=middle;resizable=0;points=[];autosize=1;strokeColor=none;fillColor=none;" vertex="1" parent="1">
          <mxGeometry x="1720" y="110" width="190" height="30" as="geometry" />
        </mxCell>
        <mxCell id="sFc8jUiMXnoDbdj5g7ks-119" value="&lt;b&gt;About the platform&lt;/b&gt;" style="text;html=1;align=center;verticalAlign=middle;resizable=0;points=[];autosize=1;strokeColor=none;fillColor=none;" vertex="1" parent="1">
          <mxGeometry x="1460" y="320" width="130" height="30" as="geometry" />
        </mxCell>
        <mxCell id="sFc8jUiMXnoDbdj5g7ks-120" value="&lt;b&gt;Contact us&lt;/b&gt;" style="text;html=1;align=center;verticalAlign=middle;resizable=0;points=[];autosize=1;strokeColor=none;fillColor=none;" vertex="1" parent="1">
          <mxGeometry x="1650" y="320" width="90" height="30" as="geometry" />
        </mxCell>
        <mxCell id="sFc8jUiMXnoDbdj5g7ks-121" value="&lt;b&gt;Social Media platforms&lt;/b&gt;" style="text;html=1;align=center;verticalAlign=middle;resizable=0;points=[];autosize=1;strokeColor=none;fillColor=none;" vertex="1" parent="1">
          <mxGeometry x="1800" y="320" width="150" height="30" as="geometry" />
        </mxCell>
        <mxCell id="sFc8jUiMXnoDbdj5g7ks-122" value="&lt;b&gt;Site Announcements&lt;/b&gt;" style="text;html=1;align=center;verticalAlign=middle;resizable=0;points=[];autosize=1;strokeColor=none;fillColor=none;" vertex="1" parent="1">
          <mxGeometry x="1620" y="190" width="140" height="30" as="geometry" />
        </mxCell>
        <mxCell id="sFc8jUiMXnoDbdj5g7ks-123" value="" style="rounded=0;whiteSpace=wrap;html=1;" vertex="1" parent="1">
          <mxGeometry x="1650" y="170" width="300" height="200" as="geometry" />
        </mxCell>
        <mxCell id="sFc8jUiMXnoDbdj5g7ks-124" value="How may I help you today?" style="rounded=1;whiteSpace=wrap;html=1;" vertex="1" parent="1">
          <mxGeometry x="1050" y="220" width="170" height="20" as="geometry" />
        </mxCell>
        <mxCell id="sFc8jUiMXnoDbdj5g7ks-125" value="" style="rounded=0;whiteSpace=wrap;html=1;" vertex="1" parent="1">
          <mxGeometry x="1660" y="210" width="280" height="150" as="geometry" />
        </mxCell>
        <mxCell id="sFc8jUiMXnoDbdj5g7ks-127" value="" style="shape=image;verticalLabelPosition=bottom;labelBackgroundColor=default;verticalAlign=top;aspect=fixed;imageAspect=0;image=data:image/png,iVBORw0KGgoAAAANSUhEUgAAAH0AAAB9CAMAAAC4XpwXAAAAZlBMVEX///8AAADMzMzf398ICAj5+fnS0tLV1dVgYGC6urrp6en8/PyTk5NlZWVYWFiwsLAXFxcvLy80NDRqamqCgoJLS0vBwcF0dHRGRkZ6enqnp6cPDw85OTmZmZnx8fEpKSkfHx+Li4vYg6BoAAAEvElEQVRoge1a2ZLiMAwEQshJwn0ESOD/f3LDNUSygiU5hKma7ap92cLpkdWSLNmDAQfxKDptw938MJzNd+G+iCYxa50zEi9aVuMhxmG+33if5vZOO5P5idm6+OAW+HnYyvzcgmn0IfLibOO+4fgB/uTEor5vQNExeTTnk9dYTDrk9qYi7itWnekvEnPXqEbdkK805DXSDrg9mceb2JWu5JOZmrwOPsfsN3LgrrEIXMg3buR18nWgf2d5tUzzKNpEeZ6G75KgOvImbV9cpyic/M1l0Wa9kt6jBTenE0kSrOgtUCqfDLVj0f6xMiWXTDXkZJIp/Ldrygu16CQnp9Lr1O5Db0esEwvfIz6Ss1amxMpEyG5WtYqbuEamWi8ycnPfj+893oR3NFaLUm5iiDfjk9cHboM+lOy9cYwSWH5FaRi/Eaw2fC4jr63HX9jx1xZObrvBqE9s432cMnmhBoEDj218jhaqUmWyRl/hnvNwx6KrUgH6yp63DKc5bW+ACwVvFQo3YbC94CN2VoeVoDqhb4uQ8UvOGg+2yHP9sRi7kLOJKMWv1OSDQQY/xSm0S7jEpR9DKYfT3FRgxdqBfFDCo2ZoXxFDt7s1Y3AfGRJCZ3i3ThRlTbsXkeicyLHq7bKDuaZyYy/hKcWeOrbg96wM0Y4Expw9emGJcZ0AQFvsxRLmWU1lbwIm28z6e+gp19lbKmQ/dMp+ErKDn4uOohRgwNsTJ2xE+rYd+t1VdRch+3c1/91434PfM4riO/gw19ltgX3M2Y29hIcFu4ZRjdMeaO9AZ3p7jUNjMreARw2hvb7HMNkJpw4IUMI7xkbCgF9IRy5NxNDtW8YSKHr5vKkBpCFOX4KOwS7nedTGcqYAaEB67qyXqVhORH+xPt0tNR9CYaJu5PDshqcgFHPqoIM5fjhjLsNzSt3tCr5a4M6K8aBSMO16wUcTwzHbgXjUqBEe2ndB5BpTWnk3h0d+Y4H7kO6GM6nrjfskSdIyhpVH2RDBmO7L7oaMG6ajJOo9vHfCyxE86htKRijmNd5CRE7eCXEPGobb5BkDleYbUk6Z8HGoDTURS92Cru2pemTeiqgmT9Td0nD1/nAUE4YrazR1s1bzt/vQW1ILDroyURKbeEW2oYyJIzyQf4A5GTdtabtXXixzr3xJ0C+DIiRU+oDiIvSG4M2zh3m2XaWn/HRZbbN25hsu+RVyBxBJRw85fezy6AND/gApppXPwgG1BmN5oS7lr5weOHv4kmWmmPoKXpc1sb7G5QX9p6IzUmnvntvx1Z7mhJpgE6xYPFgMdoX06sRjfdPYxOwnwZjsCunV5m/Y4h83nsSY7Crp1eDxj0EZItiHY2VTPtoTH4OGnWAFoh6PaJujGhFZRe+oUtMqml7/7NIP0tB8U7TbFh558JpQr39V0vtBGQfFappl2br+N02jIG4/8xAPYNTSU4B+J9flm9e3oHPlx998P9G19IT4gPQk+Lb0SOudnpxK8Cul15v1f1x65Ob3F/e/UXr/s14/9P+znoH+rP/b0vvu5pNZz/G+XQBCev2RE1lv6XbbLgSSXr/kKOuFPZODrOf0glKJH+n1KbgXHlmvb58/cZPet8hvWa9/wb0QNHz+D0WJNI7Z/u6XAAAAAElFTkSuQmCC;" vertex="1" parent="1">
          <mxGeometry x="1800" y="330" width="20" height="20" as="geometry" />
        </mxCell>
        <mxCell id="sFc8jUiMXnoDbdj5g7ks-128" value="" style="rounded=1;whiteSpace=wrap;html=1;align=left;" vertex="1" parent="1">
          <mxGeometry x="1670" y="215" width="250" height="105" as="geometry" />
        </mxCell>
        <mxCell id="sFc8jUiMXnoDbdj5g7ks-129" value="&lt;b&gt;3. Chatbot (ii)&lt;/b&gt;" style="text;html=1;align=center;verticalAlign=middle;resizable=0;points=[];autosize=1;strokeColor=none;fillColor=none;" vertex="1" parent="1">
          <mxGeometry x="1440" y="65" width="100" height="30" as="geometry" />
        </mxCell>
        <mxCell id="sFc8jUiMXnoDbdj5g7ks-131" value="&lt;font style=&quot;font-size: 11px;&quot;&gt;Follow the following link: &lt;u&gt;Login&lt;/u&gt;.&lt;br&gt;And you&#39;ll be redirected to the login page.&lt;/font&gt;" style="text;html=1;align=left;verticalAlign=middle;resizable=0;points=[];autosize=1;strokeColor=default;fillColor=default;rounded=1;" vertex="1" parent="1">
          <mxGeometry x="1680" y="220" width="230" height="40" as="geometry" />
        </mxCell>
        <mxCell id="sFc8jUiMXnoDbdj5g7ks-132" value="Get help on a topic..." style="text;html=1;align=center;verticalAlign=middle;resizable=0;points=[];autosize=1;strokeColor=default;fillColor=none;rounded=1;" vertex="1" parent="1">
          <mxGeometry x="1040" y="325" width="130" height="30" as="geometry" />
        </mxCell>
        <mxCell id="sFc8jUiMXnoDbdj5g7ks-138" value="How do i login?" style="text;html=1;align=center;verticalAlign=middle;resizable=0;points=[];autosize=1;strokeColor=default;fillColor=none;rounded=1;" vertex="1" parent="1">
          <mxGeometry x="1670" y="325" width="110" height="30" as="geometry" />
        </mxCell>
        <mxCell id="sFc8jUiMXnoDbdj5g7ks-139" value="Hoped that helped." style="text;html=1;align=center;verticalAlign=middle;resizable=0;points=[];autosize=1;strokeColor=default;fillColor=none;rounded=1;" vertex="1" parent="1">
          <mxGeometry x="1680" y="275" width="120" height="30" as="geometry" />
        </mxCell>
        <mxCell id="sFc8jUiMXnoDbdj5g7ks-140" value="&lt;b style=&quot;font-size: 14px;&quot;&gt;NUST Chatbot&lt;/b&gt;" style="rounded=1;whiteSpace=wrap;html=1;strokeColor=none;fontSize=14;" vertex="1" parent="1">
          <mxGeometry x="1715" y="180" width="170" height="20" as="geometry" />
        </mxCell>
        <mxCell id="sFc8jUiMXnoDbdj5g7ks-141" value="" style="rounded=0;whiteSpace=wrap;html=1;" vertex="1" parent="1">
          <mxGeometry x="2080" y="90" width="540" height="310" as="geometry" />
        </mxCell>
        <mxCell id="sFc8jUiMXnoDbdj5g7ks-146" value="Don&#39;t have an account? &lt;u&gt;Sign up&lt;/u&gt;" style="text;html=1;align=center;verticalAlign=middle;resizable=0;points=[];autosize=1;strokeColor=none;fillColor=none;" vertex="1" parent="1">
          <mxGeometry x="2360" y="95" width="190" height="30" as="geometry" />
        </mxCell>
        <mxCell id="sFc8jUiMXnoDbdj5g7ks-153" value="&lt;b&gt;4. Login Page&lt;/b&gt;" style="text;html=1;align=center;verticalAlign=middle;resizable=0;points=[];autosize=1;strokeColor=none;fillColor=none;" vertex="1" parent="1">
          <mxGeometry x="2080" y="55" width="100" height="30" as="geometry" />
        </mxCell>
        <mxCell id="sFc8jUiMXnoDbdj5g7ks-154" value="https://elearning.nust.na" style="text;html=1;align=center;verticalAlign=middle;resizable=0;points=[];autosize=1;strokeColor=default;fillColor=none;" vertex="1" parent="1">
          <mxGeometry x="890" y="97.5" width="150" height="30" as="geometry" />
        </mxCell>
        <mxCell id="sFc8jUiMXnoDbdj5g7ks-155" value="https://elearning.nust.na" style="text;html=1;align=center;verticalAlign=middle;resizable=0;points=[];autosize=1;strokeColor=default;fillColor=none;" vertex="1" parent="1">
          <mxGeometry x="260" y="95" width="150" height="30" as="geometry" />
        </mxCell>
        <mxCell id="sFc8jUiMXnoDbdj5g7ks-156" value="" style="shape=image;verticalLabelPosition=bottom;labelBackgroundColor=default;verticalAlign=top;aspect=fixed;imageAspect=0;image=data:image/png,iVBORw0KGgoAAAANSUhEUgAAAHkAAAB5CAMAAAAqJH57AAAAY1BMVEX///8dHRsAAADn5+etraz4+Pj8/Pzu7u5XV1YTExAQEA3q6uobGxloaGeCgoEDAwA4ODdiYmIrKyowMC/T09NcXFxRUVAKCgVHR0c+Pj1ycnJ8fHvc3NzIyMi+vr4kJCKMjIzGURcjAAABhElEQVRoge2a0ZaCIBRF4aJOiGWYZTWW/f9XlqOAX3Bus7j7rae9gHO4ViolCIIgCMJ/ZnyMLN7qPlDrf/Di0lOjNZ3x4j3pGerB4sovYk1PsPi8itFrrnZR7MHiNogv0GxvtnoHFYdUw1ecxMMVu9VJfCyh4njGww0rTnW6gsVSJ7g4wzqBxVInFKXPrk6ea0j4/OrEFK6NOLs6tWzTKbs6tbnUKefpxCWuweGKW910xhkEy8amVH/UBMLOP/TskxiHpV6NHOJPorx68Jj1pHoes70odas5zFQoZayNn2HZpsNcK9eFVTfds8BglqvERPVwQF5hs/oU1PSLVk/hrAm9aqf51A2b2qRVo8/aTTFmd7B6k3C4OvYaf9Z86u9IOFxtsyxX9w29hk8uxnIxJpyv15srBf+UwpZwJ+UCq/N8LOQrl9MyubBqxsnF93WPcXJtHgtfaHUoVzOgX8iLkwv9flgqFz3Q5rVcNfbPlVV9JKIT+jXAP8riVTgOsSAIgiAIKN7YwxzsYNX1BgAAAABJRU5ErkJggg==;" vertex="1" parent="1">
          <mxGeometry x="410" y="10" width="20" height="20" as="geometry" />
        </mxCell>
        <mxCell id="sFc8jUiMXnoDbdj5g7ks-157" value="" style="shape=image;verticalLabelPosition=bottom;labelBackgroundColor=default;verticalAlign=top;aspect=fixed;imageAspect=0;image=data:image/png,iVBORw0KGgoAAAANSUhEUgAAAMYAAAB3CAMAAABv08+/AAAAZlBMVEX///8AAAD09PTp6enw8PD6+vpdXV339/dXV1dRUVHm5uZaWlrt7e01NTUtLS0kJCRAQEA7OztiYmJoaGgbGxvBwcF9fX2srKyZmZnY2NgTExPg4ODHx8cKCgq4uLimpqaGhoaRkZEmACvKAAACoklEQVR4nN2cy07DMBBFY6dJmmBe6QsolPL/P4moCm2uF0gO0nDmrrOY0fHYN/bYVfUv1Gza9dvy0FnHMVPbcNLSOo55OmcRQr+wDmWGhnX4ycM6lhnahYuW0TqaYj2F6zywdf5+nUa4ofJ4fpnkgR1XbZjyaKwDKlN8CC541LeSh3VAhVIe1HVwuPPBo3t0wkPqg+pLOq1zKg8dV9YBFaqTOqf6EuWxhK7nC+HRQnnU6kugvr1WHtA8kvDA1rnysA6oUEnnKyqPex88ovorqC/ZO/HtUfOg8nDi26PWOXW+crLPkITHSOUh6yB1H65WHlCfmPGgjivlQR1XOl9BeezXwsM6oEItnOxf7Z349qT7V1Qemod1QIXy4ku8/Eel6XFtWFF5yLxL9YmDrIMrqk8UHtR9UfUlK+q4Uh7UOtf5yjqgQqlvn/xHRYy6Z1kHv317t5OFHqZzfYzWcczVicfROor5+shLn6jboTpYx/AXep00j2J1qDbWIfyFXjObQtTd/qo/nKvj14zb/v7d/9Z4XsXfrAOZpYvL7WqMknoqpsfVTlfmSYGe2zBZaDcJ8+8vY4H8F6+VBXJnJLnYpxp0jkKOqKhnZ8jqzjp0rQMqkvYljcjzJh9dMNqzxzz789HRGrW6mSz09NI6oCIttPceySI7SUau3T767vVWCtOB+LiTkjkQHyyQ1a2351rkTOvjLmPjojPPx73rzsUteL37x+zJy16IQLJI2t+CXC+cOHMXvV/qzJmd9dkeCDILdYM9ckQ1Lu4s6vkF1A1qFsk6ohI5YaHVzWTh4iZv5syRLNSBMHcPYi8skOuF9kIxd9X0XcMe6aP0lUmmp63kzU8qiykN5kx70nCpjR450561dcDiSz7eiq6aTR9exk3xiPoE9/8ki+L+aLMAAAAASUVORK5CYII=;" vertex="1" parent="1">
          <mxGeometry x="310" y="10" width="16.64" height="10" as="geometry" />
        </mxCell>
        <mxCell id="sFc8jUiMXnoDbdj5g7ks-160" value="" style="shape=image;verticalLabelPosition=bottom;labelBackgroundColor=default;verticalAlign=top;aspect=fixed;imageAspect=0;image=data:image/jpeg,/9j/4AAQSkZJRgABAQAAAQABAAD/2wCEAAkGBw0QDQ0SEg0NEhISDQ0NEhINDQ8NDxUNFREWFhUVExUkHSsiGBslHhcVLTEhMSktLi4uFyEzODMsNygwOj4BCgoKBQUFDgUFDisZExkrKysrKysrKysrKysrKysrKysrKysrKysrKysrKysrKysrKysrKysrKysrKysrKysrK//AABEIAOEA4QMBIgACEQEDEQH/xAAbAAEBAQADAQEAAAAAAAAAAAAACAcBAwYFAv/EAD0QAAICAQEFAwoEBAUFAAAAAAABAgMRBAUHITFBElFTBhMUFlVhcZKU0iNCcoEkMlKRCCIzscFDYmOCsv/EABQBAQAAAAAAAAAAAAAAAAAAAAD/xAAUEQEAAAAAAAAAAAAAAAAAAAAA/9oADAMBAAIRAxEAPwDcAAAAAAAAAAAAAAAAAAAAAAAAAAAAAAAAAAAAADj7gOIAAAAAAAAAAAAAAAAAAAAAAAAAAAAAAAAAAAAAAGfcBkAAAAAAAAAAAAAAAAAAAAAAAAAAAAAAAAAAAAAADKAygAAAAAAAAAAAAAAAAAAAAAAAAAAAAAAAAAAAAAAMAYAAAAAAAAPE+UG9XYmiulTPUTssjJxmtNW7lCSeGpS4LK6rOVgD2wPieS/lZs7aVcp6TURs7OO3Bpwthnl2oPilz48njmfbAAAAAAAAAAAAAAAAAAHzdv7e0egod2qvhVXnsrtZcpS59mEVxk/ckB9IHgdm74NgX3Kv0myrLwp6il11N++XFR+Lwj3qaeGuXNY45QHIAAAABgDHvAAAAADF98G9LzXndBoLfxONeo1Fb/k6Oqp/198vy8lx5A3wb0vNed0Ggt/E416jUVv+To6qn/X3y/LyXHlgoAHrd1W07tNt3Zzrb/F1NelnFZxKm2ShLPellP4xXcVqYpuT3b2VTq2lq4uMuy3paZLEkpRa87YunBvC9+e42sAAAAAAAAAAAAAAAAATNv8Adp3W7cspk5KvTU0V1Lj2fxK42Tkl3tyxn/sXcUyZfvl3dS2jBavTLOqqq7Eq/GpTbSXdNZeO/OO4CbTXt0G9F6V16HXWN6ZtQovm+ND6Qm/C7n+X9PLI7ISjJqSakm4tSTTUlwaa6M/IFwpppYfDGcrlj3HJPe6Dei9L5vQ62z+GbUKL5vLofSE34fc/y/p5UGmmlhp5Wcrisd4HIAAYfeBx9wAAGW79fLS/QaanS6ebhdqlY52R4Thp1wfYfSUm8Z6JPk8MD5O+Del5rzug0Fv4nGvUait/ydHVU/6++X5eS48sFAAG4bn91q/C1+vr/ps02nsX7q21f7R/dmHnb6RZ4k/mYFuZGSI/SLPEn8zHpFniT+ZgW5kZIj9Is8SfzMekWeJP5mBbmRkiP0izxJ/Mx6RZ4k/mYFuglbdxvB1uztZTGd9lmknZCu6q2yUoRg3h2V5/lks54c8YZVIAAnHfJvA1l+v1GjovnVptPN0S8zNwlbdHhZ5xrnFPKUeXDPPkFHZOMkR+kWeJP5mPSLPEn8zAtzIyRH6RZ4k/mY9Is8SfzMC3MjJEfpFniT+Zj0izxJ/MwKG3u7sI61T1mjglq0u1bVHCV6S5rus/3+JO04OLakmmm4tSTTUlwaa6H79Is8SfzM6223l/Hj3gcGvboN6L0rr0Otszp21Ci+b/ANB9ITfh9z/L+nlkIAuGLWE0854prjlHJiG4Dy0vsnLZt83OMaXbpZS4yjGLXaqz1jh5XdhrljG3gOIGfcABjv8AiF8l776dNraoSn6PCyq9RWZRob7Ssx/TF9rPd2s8kzYjhpYaazng0+qAh4Gvb391r0vnNdoa86d5nfRBZ8w+s4Lw+9fl/TyyEAAbnuj8pdka1Q0es2fs5apJRqtlo9Olel0f+X/U/wDr4gYYCyvVTZPszZ/0dH2j1U2T7M2f9HR9oEagsr1U2T7M2f8AR0faPVTZPszZ/wBHR9oEagsr1U2T7M2f9HR9o9VNk+zNn/R0faBLHkJ5K6jamvqprrk61OEtRZxUK6M/5m33tJ4XVlfpYOnSaSmmChVVXXBcoVVxrjn4JYO4AS5vk8lNRotq6m91y9H1V89RXYsuPnJtynXJ9JKXa4dVh95UZ130wshKM4RnGSw4zipxa96fBgRCCyvVTZXszZ/0dH2j1U2T7M2f9HR9oEagsr1U2T7M2f8AR0faPVTZPszZ/wBHR9oEagsr1U2T7M2f9HR9o9VNk+zNn/R0faBGoKK3pbc2Jsqp1VbN2ZZrbI5hB6PTyjVF/wDUsXZ/tHr8CeLbHKUpPGZScnhKKy3l4S4ID8AGjbqd2tm1LFqNQpQ0MJcXxjK+afGFb6R75fsuOcB97/D15L3S1Vm0JwlGmuqymmUljzl0uEnHvUUmm++WOjN+OrS6auquFdcIwrhGMIQhFRjGCWEkuiO0BkDKAAAAcNJp5SeVjD4rBPm9/dc9L5zXaGv+GeZ30QWXQ+s4Lw+9fl/TyoQ4aTTyuGMYfLHvAh4/UJuLTTaaaknF4aa5NPozXN7+656V2a7Q150zbnfRBcaH1nBeH3r8v6eWQgUduf3l+nqOi1cv4uMH5ux8PP1xWXn/AMiSbfek30ZqhIu7Ci6zbuy1VntLWVWSx4MH2rc+7sKX9yugAAAAAAAAAAAAAAAAB4LepvCr2RQq6+zPWXQcq4vjGuGWvO2LuynhdWn3M96TDv6090dv3ynnsWUaadOeXmlWotL/AN42f3A8FrtZbfbZbbZKyyyTnOc3mUpPqzoBo26ndtZtSxajUKUNDCXF8YyvmnxhW+ke+X7LjnAN1O7Wzali1GoUoaGE+L4xnfNPjCt9I98v2XHOKX0mmrqrhXXCMK4RjCEIRUYxglhJLoNLpq6q4V1wjCuEYwhCEVGEYJYSS6I7QAAAZQHAAAAAAAHDSeV05PPFNGXbf3H7L1F8rKLrtL2pOUq64xspTby+xF8Y/DOF0SNSAHkvIfd7s/ZPblSp2XTj2J33NOzsZz2YpLEY5/vhZbwj1oAAAAAAAAAAAAAAAAAA895Z+Rug2rRGvUwl2oNuq2pqN1bfPsvGGnwymmuC6pHoQBkuzdw2za7VK7V6m6CefNYjSn7pSXHHwwarpdNXVXCuuEYVwjGEIQiowjBLCSXRHaAAAAAABgDAAAAAAAAAAAAAAAAAAAAAAAAAAAAAAAAAAAAAAAGPewMe8AAAAAAAAAAAAAAAAAAAAAAAAAAAAAAAAAAAAAADiBxAAAAAAAAAAAAAAAAAAAAAAAAAAAAAAAAAAAAAAAz7gM/EAAAAAAAAAAAAAAAAAAAAAAAAAAAAAAAAAAAAAADtAZADr+w6gAH0EgAEuQfIAAggACC6gAFzY6/sAA6h9AADEuQAB8h0AAIRAALr8QuoADqOoAB9BL/kABIMAD8gAD//2Q==;imageBorder=none;" vertex="1" parent="1">
          <mxGeometry x="190" y="92.5" width="35" height="35" as="geometry" />
        </mxCell>
        <mxCell id="sFc8jUiMXnoDbdj5g7ks-161" value="" style="shape=image;verticalLabelPosition=bottom;labelBackgroundColor=default;verticalAlign=top;aspect=fixed;imageAspect=0;image=data:image/png,iVBORw0KGgoAAAANSUhEUgAAAOEAAADhCAMAAAAJbSJIAAAAflBMVEX///8UFBQAAAAREREMDAwPDw/p6enw8PD8/PwKCgpeXl6Dg4Pf39/o6OihoaHl5eXHx8eZmZmysrJ+fn6/v7/Z2dm1tbVzc3NqamosLCyIiIg5OTlWVlb29vZjY2PBwcEiIiKmpqbNzc0yMjJMTExBQUEaGhp4eHhDQ0OTk5O34VtLAAAH0klEQVR4nO2dZ3fyOgyAi5wACaNswgiFMkr//x+8BPpCQHISQHLgHj1fe4qs2Nby+vhQFEVRFEVRFEVRFEVRFEVRFEVRFEVRFEVRFEVRlBT1ZmfUbYyjRRiGi2jc6I46zXrZjeKi+vW7WALFcvH7VS27eU/S6o2PuvgVCv/4t/GoVXYzH6XZXR8UMKRy12quu82yG3s/1UQ9L0e7f3gAs+579WQnLK7eWcmwU3azi1JfHbrvLvVOHEbr6i3sa9u/s/vSHem3y25+Liub4SzGwe6sylYhk87kKf0SDCy/ylbDSit8eHym8WD+WbYqNO2H7AsFQLdsZQham1znXhwD25frxh5bB54A6JWt0jVjxg48YSAqW6kU1QlvB56AycuM1G8IBBSsVAJ4kTiuV8gHGi9IpYaBX2RU+6/h/ru5U9B4iU7rTTRtr3q91ao9jTaTRM9c72lewW1Mc6agSfK/Rq9Zu/m/2rDXn+TnjzAtRasUjWwFkxx+YK9UVEcR5LgZ6DvUhqCf1bxDGB3l24pOlB2sl6vib4aCASzbcaFfiduTLGtc5kBd2RX0YTa645cG2wyzA6UljV9WBQ8p0D36JQzWdqMDA5H259K0Tp/HcgN7bmKglFpcvLTMHQPzx+q8tYWtG4NdsRnNy9zyxZ/JCka2boQ5Y8sL0rW1ZXvr2++htrH97C9bywsypFtinvZeU8tIhW+WdhdnSRp3nyFvHdEGzFu6raXSwZrHku5YkjG3sQ09Rj0Ysvx6M6BV5Pn1YsyoJnhsXuuTDHC8CdPPF6BNdaEPfEWHT3IuuoveapR8wzqIhpRFNfCMI7oHMmVijh0HpAxHxuaT+r7sHplKzAzjRMhiTMiGBbuYkBLjpIbaIiT7ApFxvCMMqpMk44f6thIh1TclaCwg6IaYktsQEUUETgbkN+AQOYW/kxFVJ4JfBznGDvtCkFq0JcokPgjJyhIKGzFpRJYtXrNZEDLlIuImIU04268RIvld4QXqg8qGbj1CoqSL+iTkya5H4YkBoahAHNkEctP+IxmkKCQVrp8Qbl90mOKIP5gJikvAyTbcW06/Bxx0i2eleG1ENPyeIHcvnpTiieELVt2wZXNQi8a2RtB6Y1/hYF/PyKVQXL5wEOrjIEMwhUJ2zZO2pAmbW6nBVkpUHNxOeqHE8BpUsZGrueE42MnibMedqcGZE7g4QoCrCmI+H5W6jXg6egR5YbEwA9VNZIPgMyiFgh8hScj3OjE0xMYysS+7vi0MOVoqQYGGtxaShCJER/tckDH1l0KSsE1zs2aJckRTkdl8UncZAqdBK85SLp8IEPmXgqgiDJHSyITDVReCwjlO/ggNZVbZCA35B0uD2KH//9KwDXiHPhEPO9OQf5QOoOLfulm8t0VIQyeW5uj7blJc7C2ELA3hLfj94WlEwjbt8JDHN4FQgog15K8G/6VKEKQ+HqrUSCyqH/FRFiMQtf2Fhl4qB0SLsr7U7ihUppE40fIvGTSXLfqoACZWaMd5msAOnvn5M0JYt8mVWg3CedqeX0hq4QAmJ5M5Q1mbVF5KLCHwC0kXEoKjKSNsuNQSIl7pEkgursyKSZw/EdJIbY0g4kP+otfNAh78EEt6ciU+g9wFf0nodqDAHG3CEnOHRH1doJyAgtDA5To33hHJPxGJ3R5IqNxhNmJG8Pv8AhrKFcBw/iSwDFTJPTctue5MbBtgH6b7vKPvcotrH9SxZv45EeUNU9FKO/b5/o5720DO2emDhpL3EMR4krA7fduhuH8YED0AhYcQeyaDdybcfFLZ3ezU9lLmIJHa3n0lT3axpO6hYcrdiZaTjZdByisOQZyXYZ6J2OleS5NesyS+MPdG9hwNQ+mTllvskJn3z3vZl4HAWniXErFLmDlfIw83pqVJHwkmznXx7tYn9nZfg8r+zFDHK1lF5t14U5E+HFQnOpH1eGVeUHNUcS95yQLVgmDCJ5Ga6VjFneAeAiI4ZS3S5gU1f99Ucrs3eS0NnycmDspQGMlDXmvKnrNZG+oIJ4ngUQ96HHFtTo5zXH5K4kTM+dN5OJeKy8K3vAZizp84O1NJZgbPekJeUJNC7lY+2qIzTX7qFLeN56+LubMVLMFGbqXmWuRGxvnHlmuwYPZ8MZO8dsOGH4DQBkKbX4bnqwz5QY3xzxdp7vZRfyqTMtru2zMwfnLY4M35f798uSB0son63VFnKHvqyprlwO65brwOai56BevNot8+6BU7ulCpPrOp6MP8mWJ/Uqm5jMPKeh/2271Os+ZKsVRLKta7DgF+Hg834uTNj+U2bCR6Vcu4i+5MM+N+1YOOD+96+262StUrBXkV0EXH+evekF+Y7+zLVQEaLi/oEqGTfRG0OViKn9F7Pwj0nXej8/GpnKj9xu8eDb38VCC57hr2Jd2z+jytgnfOBzB/FQt5L3XblZy3AGNFzjGNgo+vCF5lI82g4PMWojc+yFIt9kSJ+DUaknQLdaOjW/NkaO4LzMZXebLiQQo8NvNqz8fcS9zI0/GNTc0f1XG2jk6vyhXic5zxmoPvl908FlpT3/aaQ/lPjjAR97ZkR/qeq3tyHTCcLtFTOebNfQVi+Js8tXoZrwzF4tejNmhsz488zd/rMdXi1Ie9xiKM3vFFXEVRFEVRFEVRFEVRFEVRFEVRFEVRFEVRFEVRFKUM/gOV5lkyfDlNrAAAAABJRU5ErkJggg==;" vertex="1" parent="1">
          <mxGeometry x="230" y="100" width="20" height="20" as="geometry" />
        </mxCell>
        <mxCell id="sFc8jUiMXnoDbdj5g7ks-162" value="" style="shape=image;verticalLabelPosition=bottom;labelBackgroundColor=default;verticalAlign=top;aspect=fixed;imageAspect=0;image=data:image/jpeg,/9j/4AAQSkZJRgABAQAAAQABAAD/2wCEAAkGBw0QDQ0SEg0NEhISDQ0NEhINDQ8NDxUNFREWFhUVExUkHSsiGBslHhcVLTEhMSktLi4uFyEzODMsNygwOj4BCgoKBQUFDgUFDisZExkrKysrKysrKysrKysrKysrKysrKysrKysrKysrKysrKysrKysrKysrKysrKysrKysrK//AABEIAOEA4QMBIgACEQEDEQH/xAAbAAEBAQADAQEAAAAAAAAAAAAACAcBAwYFAv/EAD0QAAICAQEFAwoEBAUFAAAAAAABAgMRBAUHITFBElFTBhMUFlVhcZKU0iNCcoEkMlKRCCIzscFDYmOCsv/EABQBAQAAAAAAAAAAAAAAAAAAAAD/xAAUEQEAAAAAAAAAAAAAAAAAAAAA/9oADAMBAAIRAxEAPwDcAAAAAAAAAAAAAAAAAAAAAAAAAAAAAAAAAAAAADj7gOIAAAAAAAAAAAAAAAAAAAAAAAAAAAAAAAAAAAAAAGfcBkAAAAAAAAAAAAAAAAAAAAAAAAAAAAAAAAAAAAAADKAygAAAAAAAAAAAAAAAAAAAAAAAAAAAAAAAAAAAAAAMAYAAAAAAAAPE+UG9XYmiulTPUTssjJxmtNW7lCSeGpS4LK6rOVgD2wPieS/lZs7aVcp6TURs7OO3Bpwthnl2oPilz48njmfbAAAAAAAAAAAAAAAAAAHzdv7e0egod2qvhVXnsrtZcpS59mEVxk/ckB9IHgdm74NgX3Kv0myrLwp6il11N++XFR+Lwj3qaeGuXNY45QHIAAAABgDHvAAAAADF98G9LzXndBoLfxONeo1Fb/k6Oqp/198vy8lx5A3wb0vNed0Ggt/E416jUVv+To6qn/X3y/LyXHlgoAHrd1W07tNt3Zzrb/F1NelnFZxKm2ShLPellP4xXcVqYpuT3b2VTq2lq4uMuy3paZLEkpRa87YunBvC9+e42sAAAAAAAAAAAAAAAAATNv8Adp3W7cspk5KvTU0V1Lj2fxK42Tkl3tyxn/sXcUyZfvl3dS2jBavTLOqqq7Eq/GpTbSXdNZeO/OO4CbTXt0G9F6V16HXWN6ZtQovm+ND6Qm/C7n+X9PLI7ISjJqSakm4tSTTUlwaa6M/IFwpppYfDGcrlj3HJPe6Dei9L5vQ62z+GbUKL5vLofSE34fc/y/p5UGmmlhp5Wcrisd4HIAAYfeBx9wAAGW79fLS/QaanS6ebhdqlY52R4Thp1wfYfSUm8Z6JPk8MD5O+Del5rzug0Fv4nGvUait/ydHVU/6++X5eS48sFAAG4bn91q/C1+vr/ps02nsX7q21f7R/dmHnb6RZ4k/mYFuZGSI/SLPEn8zHpFniT+ZgW5kZIj9Is8SfzMekWeJP5mBbmRkiP0izxJ/Mx6RZ4k/mYFuglbdxvB1uztZTGd9lmknZCu6q2yUoRg3h2V5/lks54c8YZVIAAnHfJvA1l+v1GjovnVptPN0S8zNwlbdHhZ5xrnFPKUeXDPPkFHZOMkR+kWeJP5mPSLPEn8zAtzIyRH6RZ4k/mY9Is8SfzMC3MjJEfpFniT+Zj0izxJ/MwKG3u7sI61T1mjglq0u1bVHCV6S5rus/3+JO04OLakmmm4tSTTUlwaa6H79Is8SfzM6223l/Hj3gcGvboN6L0rr0Otszp21Ci+b/ANB9ITfh9z/L+nlkIAuGLWE0854prjlHJiG4Dy0vsnLZt83OMaXbpZS4yjGLXaqz1jh5XdhrljG3gOIGfcABjv8AiF8l776dNraoSn6PCyq9RWZRob7Ssx/TF9rPd2s8kzYjhpYaazng0+qAh4Gvb391r0vnNdoa86d5nfRBZ8w+s4Lw+9fl/TyyEAAbnuj8pdka1Q0es2fs5apJRqtlo9Olel0f+X/U/wDr4gYYCyvVTZPszZ/0dH2j1U2T7M2f9HR9oEagsr1U2T7M2f8AR0faPVTZPszZ/wBHR9oEagsr1U2T7M2f9HR9o9VNk+zNn/R0faBLHkJ5K6jamvqprrk61OEtRZxUK6M/5m33tJ4XVlfpYOnSaSmmChVVXXBcoVVxrjn4JYO4AS5vk8lNRotq6m91y9H1V89RXYsuPnJtynXJ9JKXa4dVh95UZ130wshKM4RnGSw4zipxa96fBgRCCyvVTZXszZ/0dH2j1U2T7M2f9HR9oEagsr1U2T7M2f8AR0faPVTZPszZ/wBHR9oEagsr1U2T7M2f9HR9o9VNk+zNn/R0faBGoKK3pbc2Jsqp1VbN2ZZrbI5hB6PTyjVF/wDUsXZ/tHr8CeLbHKUpPGZScnhKKy3l4S4ID8AGjbqd2tm1LFqNQpQ0MJcXxjK+afGFb6R75fsuOcB97/D15L3S1Vm0JwlGmuqymmUljzl0uEnHvUUmm++WOjN+OrS6auquFdcIwrhGMIQhFRjGCWEkuiO0BkDKAAAAcNJp5SeVjD4rBPm9/dc9L5zXaGv+GeZ30QWXQ+s4Lw+9fl/TyoQ4aTTyuGMYfLHvAh4/UJuLTTaaaknF4aa5NPozXN7+656V2a7Q150zbnfRBcaH1nBeH3r8v6eWQgUduf3l+nqOi1cv4uMH5ux8PP1xWXn/AMiSbfek30ZqhIu7Ci6zbuy1VntLWVWSx4MH2rc+7sKX9yugAAAAAAAAAAAAAAAAB4LepvCr2RQq6+zPWXQcq4vjGuGWvO2LuynhdWn3M96TDv6090dv3ynnsWUaadOeXmlWotL/AN42f3A8FrtZbfbZbbZKyyyTnOc3mUpPqzoBo26ndtZtSxajUKUNDCXF8YyvmnxhW+ke+X7LjnAN1O7Wzali1GoUoaGE+L4xnfNPjCt9I98v2XHOKX0mmrqrhXXCMK4RjCEIRUYxglhJLoNLpq6q4V1wjCuEYwhCEVGEYJYSS6I7QAAAZQHAAAAAAAHDSeV05PPFNGXbf3H7L1F8rKLrtL2pOUq64xspTby+xF8Y/DOF0SNSAHkvIfd7s/ZPblSp2XTj2J33NOzsZz2YpLEY5/vhZbwj1oAAAAAAAAAAAAAAAAAA895Z+Rug2rRGvUwl2oNuq2pqN1bfPsvGGnwymmuC6pHoQBkuzdw2za7VK7V6m6CefNYjSn7pSXHHwwarpdNXVXCuuEYVwjGEIQiowjBLCSXRHaAAAAAABgDAAAAAAAAAAAAAAAAAAAAAAAAAAAAAAAAAAAAAAAGPewMe8AAAAAAAAAAAAAAAAAAAAAAAAAAAAAAAAAAAAAADiBxAAAAAAAAAAAAAAAAAAAAAAAAAAAAAAAAAAAAAAAz7gM/EAAAAAAAAAAAAAAAAAAAAAAAAAAAAAAAAAAAAAADtAZADr+w6gAH0EgAEuQfIAAggACC6gAFzY6/sAA6h9AADEuQAB8h0AAIRAALr8QuoADqOoAB9BL/kABIMAD8gAD//2Q==;imageBorder=none;" vertex="1" parent="1">
          <mxGeometry x="820" y="95" width="35" height="35" as="geometry" />
        </mxCell>
        <mxCell id="sFc8jUiMXnoDbdj5g7ks-163" value="" style="shape=image;verticalLabelPosition=bottom;labelBackgroundColor=default;verticalAlign=top;aspect=fixed;imageAspect=0;image=data:image/png,iVBORw0KGgoAAAANSUhEUgAAAOEAAADhCAMAAAAJbSJIAAAAflBMVEX///8UFBQAAAAREREMDAwPDw/p6enw8PD8/PwKCgpeXl6Dg4Pf39/o6OihoaHl5eXHx8eZmZmysrJ+fn6/v7/Z2dm1tbVzc3NqamosLCyIiIg5OTlWVlb29vZjY2PBwcEiIiKmpqbNzc0yMjJMTExBQUEaGhp4eHhDQ0OTk5O34VtLAAAH0klEQVR4nO2dZ3fyOgyAi5wACaNswgiFMkr//x+8BPpCQHISQHLgHj1fe4qs2Nby+vhQFEVRFEVRFEVRFEVRFEVRFEVRFEVRFEVRFEVRlBT1ZmfUbYyjRRiGi2jc6I46zXrZjeKi+vW7WALFcvH7VS27eU/S6o2PuvgVCv/4t/GoVXYzH6XZXR8UMKRy12quu82yG3s/1UQ9L0e7f3gAs+579WQnLK7eWcmwU3azi1JfHbrvLvVOHEbr6i3sa9u/s/vSHem3y25+Liub4SzGwe6sylYhk87kKf0SDCy/ylbDSit8eHym8WD+WbYqNO2H7AsFQLdsZQham1znXhwD25frxh5bB54A6JWt0jVjxg48YSAqW6kU1QlvB56AycuM1G8IBBSsVAJ4kTiuV8gHGi9IpYaBX2RU+6/h/ru5U9B4iU7rTTRtr3q91ao9jTaTRM9c72lewW1Mc6agSfK/Rq9Zu/m/2rDXn+TnjzAtRasUjWwFkxx+YK9UVEcR5LgZ6DvUhqCf1bxDGB3l24pOlB2sl6vib4aCASzbcaFfiduTLGtc5kBd2RX0YTa645cG2wyzA6UljV9WBQ8p0D36JQzWdqMDA5H259K0Tp/HcgN7bmKglFpcvLTMHQPzx+q8tYWtG4NdsRnNy9zyxZ/JCka2boQ5Y8sL0rW1ZXvr2++htrH97C9bywsypFtinvZeU8tIhW+WdhdnSRp3nyFvHdEGzFu6raXSwZrHku5YkjG3sQ09Rj0Ysvx6M6BV5Pn1YsyoJnhsXuuTDHC8CdPPF6BNdaEPfEWHT3IuuoveapR8wzqIhpRFNfCMI7oHMmVijh0HpAxHxuaT+r7sHplKzAzjRMhiTMiGBbuYkBLjpIbaIiT7ApFxvCMMqpMk44f6thIh1TclaCwg6IaYktsQEUUETgbkN+AQOYW/kxFVJ4JfBznGDvtCkFq0JcokPgjJyhIKGzFpRJYtXrNZEDLlIuImIU04268RIvld4QXqg8qGbj1CoqSL+iTkya5H4YkBoahAHNkEctP+IxmkKCQVrp8Qbl90mOKIP5gJikvAyTbcW06/Bxx0i2eleG1ENPyeIHcvnpTiieELVt2wZXNQi8a2RtB6Y1/hYF/PyKVQXL5wEOrjIEMwhUJ2zZO2pAmbW6nBVkpUHNxOeqHE8BpUsZGrueE42MnibMedqcGZE7g4QoCrCmI+H5W6jXg6egR5YbEwA9VNZIPgMyiFgh8hScj3OjE0xMYysS+7vi0MOVoqQYGGtxaShCJER/tckDH1l0KSsE1zs2aJckRTkdl8UncZAqdBK85SLp8IEPmXgqgiDJHSyITDVReCwjlO/ggNZVbZCA35B0uD2KH//9KwDXiHPhEPO9OQf5QOoOLfulm8t0VIQyeW5uj7blJc7C2ELA3hLfj94WlEwjbt8JDHN4FQgog15K8G/6VKEKQ+HqrUSCyqH/FRFiMQtf2Fhl4qB0SLsr7U7ihUppE40fIvGTSXLfqoACZWaMd5msAOnvn5M0JYt8mVWg3CedqeX0hq4QAmJ5M5Q1mbVF5KLCHwC0kXEoKjKSNsuNQSIl7pEkgursyKSZw/EdJIbY0g4kP+otfNAh78EEt6ciU+g9wFf0nodqDAHG3CEnOHRH1doJyAgtDA5To33hHJPxGJ3R5IqNxhNmJG8Pv8AhrKFcBw/iSwDFTJPTctue5MbBtgH6b7vKPvcotrH9SxZv45EeUNU9FKO/b5/o5720DO2emDhpL3EMR4krA7fduhuH8YED0AhYcQeyaDdybcfFLZ3ezU9lLmIJHa3n0lT3axpO6hYcrdiZaTjZdByisOQZyXYZ6J2OleS5NesyS+MPdG9hwNQ+mTllvskJn3z3vZl4HAWniXErFLmDlfIw83pqVJHwkmznXx7tYn9nZfg8r+zFDHK1lF5t14U5E+HFQnOpH1eGVeUHNUcS95yQLVgmDCJ5Ga6VjFneAeAiI4ZS3S5gU1f99Ucrs3eS0NnycmDspQGMlDXmvKnrNZG+oIJ4ngUQ96HHFtTo5zXH5K4kTM+dN5OJeKy8K3vAZizp84O1NJZgbPekJeUJNC7lY+2qIzTX7qFLeN56+LubMVLMFGbqXmWuRGxvnHlmuwYPZ8MZO8dsOGH4DQBkKbX4bnqwz5QY3xzxdp7vZRfyqTMtru2zMwfnLY4M35f798uSB0son63VFnKHvqyprlwO65brwOai56BevNot8+6BU7ulCpPrOp6MP8mWJ/Uqm5jMPKeh/2271Os+ZKsVRLKta7DgF+Hg834uTNj+U2bCR6Vcu4i+5MM+N+1YOOD+96+262StUrBXkV0EXH+evekF+Y7+zLVQEaLi/oEqGTfRG0OViKn9F7Pwj0nXej8/GpnKj9xu8eDb38VCC57hr2Jd2z+jytgnfOBzB/FQt5L3XblZy3AGNFzjGNgo+vCF5lI82g4PMWojc+yFIt9kSJ+DUaknQLdaOjW/NkaO4LzMZXebLiQQo8NvNqz8fcS9zI0/GNTc0f1XG2jk6vyhXic5zxmoPvl908FlpT3/aaQ/lPjjAR97ZkR/qeq3tyHTCcLtFTOebNfQVi+Js8tXoZrwzF4tejNmhsz488zd/rMdXi1Ie9xiKM3vFFXEVRFEVRFEVRFEVRFEVRFEVRFEVRFEVRFEVRFKUM/gOV5lkyfDlNrAAAAABJRU5ErkJggg==;" vertex="1" parent="1">
          <mxGeometry x="860" y="102.5" width="20" height="20" as="geometry" />
        </mxCell>
        <mxCell id="sFc8jUiMXnoDbdj5g7ks-164" value="https://elearning.nust.na" style="text;html=1;align=center;verticalAlign=middle;resizable=0;points=[];autosize=1;strokeColor=default;fillColor=none;" vertex="1" parent="1">
          <mxGeometry x="1510" y="95" width="150" height="30" as="geometry" />
        </mxCell>
        <mxCell id="sFc8jUiMXnoDbdj5g7ks-165" value="" style="shape=image;verticalLabelPosition=bottom;labelBackgroundColor=default;verticalAlign=top;aspect=fixed;imageAspect=0;image=data:image/jpeg,/9j/4AAQSkZJRgABAQAAAQABAAD/2wCEAAkGBw0QDQ0SEg0NEhISDQ0NEhINDQ8NDxUNFREWFhUVExUkHSsiGBslHhcVLTEhMSktLi4uFyEzODMsNygwOj4BCgoKBQUFDgUFDisZExkrKysrKysrKysrKysrKysrKysrKysrKysrKysrKysrKysrKysrKysrKysrKysrKysrK//AABEIAOEA4QMBIgACEQEDEQH/xAAbAAEBAQADAQEAAAAAAAAAAAAACAcBAwYFAv/EAD0QAAICAQEFAwoEBAUFAAAAAAABAgMRBAUHITFBElFTBhMUFlVhcZKU0iNCcoEkMlKRCCIzscFDYmOCsv/EABQBAQAAAAAAAAAAAAAAAAAAAAD/xAAUEQEAAAAAAAAAAAAAAAAAAAAA/9oADAMBAAIRAxEAPwDcAAAAAAAAAAAAAAAAAAAAAAAAAAAAAAAAAAAAADj7gOIAAAAAAAAAAAAAAAAAAAAAAAAAAAAAAAAAAAAAAGfcBkAAAAAAAAAAAAAAAAAAAAAAAAAAAAAAAAAAAAAADKAygAAAAAAAAAAAAAAAAAAAAAAAAAAAAAAAAAAAAAAMAYAAAAAAAAPE+UG9XYmiulTPUTssjJxmtNW7lCSeGpS4LK6rOVgD2wPieS/lZs7aVcp6TURs7OO3Bpwthnl2oPilz48njmfbAAAAAAAAAAAAAAAAAAHzdv7e0egod2qvhVXnsrtZcpS59mEVxk/ckB9IHgdm74NgX3Kv0myrLwp6il11N++XFR+Lwj3qaeGuXNY45QHIAAAABgDHvAAAAADF98G9LzXndBoLfxONeo1Fb/k6Oqp/198vy8lx5A3wb0vNed0Ggt/E416jUVv+To6qn/X3y/LyXHlgoAHrd1W07tNt3Zzrb/F1NelnFZxKm2ShLPellP4xXcVqYpuT3b2VTq2lq4uMuy3paZLEkpRa87YunBvC9+e42sAAAAAAAAAAAAAAAAATNv8Adp3W7cspk5KvTU0V1Lj2fxK42Tkl3tyxn/sXcUyZfvl3dS2jBavTLOqqq7Eq/GpTbSXdNZeO/OO4CbTXt0G9F6V16HXWN6ZtQovm+ND6Qm/C7n+X9PLI7ISjJqSakm4tSTTUlwaa6M/IFwpppYfDGcrlj3HJPe6Dei9L5vQ62z+GbUKL5vLofSE34fc/y/p5UGmmlhp5Wcrisd4HIAAYfeBx9wAAGW79fLS/QaanS6ebhdqlY52R4Thp1wfYfSUm8Z6JPk8MD5O+Del5rzug0Fv4nGvUait/ydHVU/6++X5eS48sFAAG4bn91q/C1+vr/ps02nsX7q21f7R/dmHnb6RZ4k/mYFuZGSI/SLPEn8zHpFniT+ZgW5kZIj9Is8SfzMekWeJP5mBbmRkiP0izxJ/Mx6RZ4k/mYFuglbdxvB1uztZTGd9lmknZCu6q2yUoRg3h2V5/lks54c8YZVIAAnHfJvA1l+v1GjovnVptPN0S8zNwlbdHhZ5xrnFPKUeXDPPkFHZOMkR+kWeJP5mPSLPEn8zAtzIyRH6RZ4k/mY9Is8SfzMC3MjJEfpFniT+Zj0izxJ/MwKG3u7sI61T1mjglq0u1bVHCV6S5rus/3+JO04OLakmmm4tSTTUlwaa6H79Is8SfzM6223l/Hj3gcGvboN6L0rr0Otszp21Ci+b/ANB9ITfh9z/L+nlkIAuGLWE0854prjlHJiG4Dy0vsnLZt83OMaXbpZS4yjGLXaqz1jh5XdhrljG3gOIGfcABjv8AiF8l776dNraoSn6PCyq9RWZRob7Ssx/TF9rPd2s8kzYjhpYaazng0+qAh4Gvb391r0vnNdoa86d5nfRBZ8w+s4Lw+9fl/TyyEAAbnuj8pdka1Q0es2fs5apJRqtlo9Olel0f+X/U/wDr4gYYCyvVTZPszZ/0dH2j1U2T7M2f9HR9oEagsr1U2T7M2f8AR0faPVTZPszZ/wBHR9oEagsr1U2T7M2f9HR9o9VNk+zNn/R0faBLHkJ5K6jamvqprrk61OEtRZxUK6M/5m33tJ4XVlfpYOnSaSmmChVVXXBcoVVxrjn4JYO4AS5vk8lNRotq6m91y9H1V89RXYsuPnJtynXJ9JKXa4dVh95UZ130wshKM4RnGSw4zipxa96fBgRCCyvVTZXszZ/0dH2j1U2T7M2f9HR9oEagsr1U2T7M2f8AR0faPVTZPszZ/wBHR9oEagsr1U2T7M2f9HR9o9VNk+zNn/R0faBGoKK3pbc2Jsqp1VbN2ZZrbI5hB6PTyjVF/wDUsXZ/tHr8CeLbHKUpPGZScnhKKy3l4S4ID8AGjbqd2tm1LFqNQpQ0MJcXxjK+afGFb6R75fsuOcB97/D15L3S1Vm0JwlGmuqymmUljzl0uEnHvUUmm++WOjN+OrS6auquFdcIwrhGMIQhFRjGCWEkuiO0BkDKAAAAcNJp5SeVjD4rBPm9/dc9L5zXaGv+GeZ30QWXQ+s4Lw+9fl/TyoQ4aTTyuGMYfLHvAh4/UJuLTTaaaknF4aa5NPozXN7+656V2a7Q150zbnfRBcaH1nBeH3r8v6eWQgUduf3l+nqOi1cv4uMH5ux8PP1xWXn/AMiSbfek30ZqhIu7Ci6zbuy1VntLWVWSx4MH2rc+7sKX9yugAAAAAAAAAAAAAAAAB4LepvCr2RQq6+zPWXQcq4vjGuGWvO2LuynhdWn3M96TDv6090dv3ynnsWUaadOeXmlWotL/AN42f3A8FrtZbfbZbbZKyyyTnOc3mUpPqzoBo26ndtZtSxajUKUNDCXF8YyvmnxhW+ke+X7LjnAN1O7Wzali1GoUoaGE+L4xnfNPjCt9I98v2XHOKX0mmrqrhXXCMK4RjCEIRUYxglhJLoNLpq6q4V1wjCuEYwhCEVGEYJYSS6I7QAAAZQHAAAAAAAHDSeV05PPFNGXbf3H7L1F8rKLrtL2pOUq64xspTby+xF8Y/DOF0SNSAHkvIfd7s/ZPblSp2XTj2J33NOzsZz2YpLEY5/vhZbwj1oAAAAAAAAAAAAAAAAAA895Z+Rug2rRGvUwl2oNuq2pqN1bfPsvGGnwymmuC6pHoQBkuzdw2za7VK7V6m6CefNYjSn7pSXHHwwarpdNXVXCuuEYVwjGEIQiowjBLCSXRHaAAAAAABgDAAAAAAAAAAAAAAAAAAAAAAAAAAAAAAAAAAAAAAAGPewMe8AAAAAAAAAAAAAAAAAAAAAAAAAAAAAAAAAAAAAADiBxAAAAAAAAAAAAAAAAAAAAAAAAAAAAAAAAAAAAAAAz7gM/EAAAAAAAAAAAAAAAAAAAAAAAAAAAAAAAAAAAAAADtAZADr+w6gAH0EgAEuQfIAAggACC6gAFzY6/sAA6h9AADEuQAB8h0AAIRAALr8QuoADqOoAB9BL/kABIMAD8gAD//2Q==;imageBorder=none;" vertex="1" parent="1">
          <mxGeometry x="1450" y="92.5" width="35" height="35" as="geometry" />
        </mxCell>
        <mxCell id="sFc8jUiMXnoDbdj5g7ks-166" value="" style="shape=image;verticalLabelPosition=bottom;labelBackgroundColor=default;verticalAlign=top;aspect=fixed;imageAspect=0;image=data:image/png,iVBORw0KGgoAAAANSUhEUgAAAOEAAADhCAMAAAAJbSJIAAAAflBMVEX///8UFBQAAAAREREMDAwPDw/p6enw8PD8/PwKCgpeXl6Dg4Pf39/o6OihoaHl5eXHx8eZmZmysrJ+fn6/v7/Z2dm1tbVzc3NqamosLCyIiIg5OTlWVlb29vZjY2PBwcEiIiKmpqbNzc0yMjJMTExBQUEaGhp4eHhDQ0OTk5O34VtLAAAH0klEQVR4nO2dZ3fyOgyAi5wACaNswgiFMkr//x+8BPpCQHISQHLgHj1fe4qs2Nby+vhQFEVRFEVRFEVRFEVRFEVRFEVRFEVRFEVRFEVRlBT1ZmfUbYyjRRiGi2jc6I46zXrZjeKi+vW7WALFcvH7VS27eU/S6o2PuvgVCv/4t/GoVXYzH6XZXR8UMKRy12quu82yG3s/1UQ9L0e7f3gAs+579WQnLK7eWcmwU3azi1JfHbrvLvVOHEbr6i3sa9u/s/vSHem3y25+Liub4SzGwe6sylYhk87kKf0SDCy/ylbDSit8eHym8WD+WbYqNO2H7AsFQLdsZQham1znXhwD25frxh5bB54A6JWt0jVjxg48YSAqW6kU1QlvB56AycuM1G8IBBSsVAJ4kTiuV8gHGi9IpYaBX2RU+6/h/ru5U9B4iU7rTTRtr3q91ao9jTaTRM9c72lewW1Mc6agSfK/Rq9Zu/m/2rDXn+TnjzAtRasUjWwFkxx+YK9UVEcR5LgZ6DvUhqCf1bxDGB3l24pOlB2sl6vib4aCASzbcaFfiduTLGtc5kBd2RX0YTa645cG2wyzA6UljV9WBQ8p0D36JQzWdqMDA5H259K0Tp/HcgN7bmKglFpcvLTMHQPzx+q8tYWtG4NdsRnNy9zyxZ/JCka2boQ5Y8sL0rW1ZXvr2++htrH97C9bywsypFtinvZeU8tIhW+WdhdnSRp3nyFvHdEGzFu6raXSwZrHku5YkjG3sQ09Rj0Ysvx6M6BV5Pn1YsyoJnhsXuuTDHC8CdPPF6BNdaEPfEWHT3IuuoveapR8wzqIhpRFNfCMI7oHMmVijh0HpAxHxuaT+r7sHplKzAzjRMhiTMiGBbuYkBLjpIbaIiT7ApFxvCMMqpMk44f6thIh1TclaCwg6IaYktsQEUUETgbkN+AQOYW/kxFVJ4JfBznGDvtCkFq0JcokPgjJyhIKGzFpRJYtXrNZEDLlIuImIU04268RIvld4QXqg8qGbj1CoqSL+iTkya5H4YkBoahAHNkEctP+IxmkKCQVrp8Qbl90mOKIP5gJikvAyTbcW06/Bxx0i2eleG1ENPyeIHcvnpTiieELVt2wZXNQi8a2RtB6Y1/hYF/PyKVQXL5wEOrjIEMwhUJ2zZO2pAmbW6nBVkpUHNxOeqHE8BpUsZGrueE42MnibMedqcGZE7g4QoCrCmI+H5W6jXg6egR5YbEwA9VNZIPgMyiFgh8hScj3OjE0xMYysS+7vi0MOVoqQYGGtxaShCJER/tckDH1l0KSsE1zs2aJckRTkdl8UncZAqdBK85SLp8IEPmXgqgiDJHSyITDVReCwjlO/ggNZVbZCA35B0uD2KH//9KwDXiHPhEPO9OQf5QOoOLfulm8t0VIQyeW5uj7blJc7C2ELA3hLfj94WlEwjbt8JDHN4FQgog15K8G/6VKEKQ+HqrUSCyqH/FRFiMQtf2Fhl4qB0SLsr7U7ihUppE40fIvGTSXLfqoACZWaMd5msAOnvn5M0JYt8mVWg3CedqeX0hq4QAmJ5M5Q1mbVF5KLCHwC0kXEoKjKSNsuNQSIl7pEkgursyKSZw/EdJIbY0g4kP+otfNAh78EEt6ciU+g9wFf0nodqDAHG3CEnOHRH1doJyAgtDA5To33hHJPxGJ3R5IqNxhNmJG8Pv8AhrKFcBw/iSwDFTJPTctue5MbBtgH6b7vKPvcotrH9SxZv45EeUNU9FKO/b5/o5720DO2emDhpL3EMR4krA7fduhuH8YED0AhYcQeyaDdybcfFLZ3ezU9lLmIJHa3n0lT3axpO6hYcrdiZaTjZdByisOQZyXYZ6J2OleS5NesyS+MPdG9hwNQ+mTllvskJn3z3vZl4HAWniXErFLmDlfIw83pqVJHwkmznXx7tYn9nZfg8r+zFDHK1lF5t14U5E+HFQnOpH1eGVeUHNUcS95yQLVgmDCJ5Ga6VjFneAeAiI4ZS3S5gU1f99Ucrs3eS0NnycmDspQGMlDXmvKnrNZG+oIJ4ngUQ96HHFtTo5zXH5K4kTM+dN5OJeKy8K3vAZizp84O1NJZgbPekJeUJNC7lY+2qIzTX7qFLeN56+LubMVLMFGbqXmWuRGxvnHlmuwYPZ8MZO8dsOGH4DQBkKbX4bnqwz5QY3xzxdp7vZRfyqTMtru2zMwfnLY4M35f798uSB0son63VFnKHvqyprlwO65brwOai56BevNot8+6BU7ulCpPrOp6MP8mWJ/Uqm5jMPKeh/2271Os+ZKsVRLKta7DgF+Hg834uTNj+U2bCR6Vcu4i+5MM+N+1YOOD+96+262StUrBXkV0EXH+evekF+Y7+zLVQEaLi/oEqGTfRG0OViKn9F7Pwj0nXej8/GpnKj9xu8eDb38VCC57hr2Jd2z+jytgnfOBzB/FQt5L3XblZy3AGNFzjGNgo+vCF5lI82g4PMWojc+yFIt9kSJ+DUaknQLdaOjW/NkaO4LzMZXebLiQQo8NvNqz8fcS9zI0/GNTc0f1XG2jk6vyhXic5zxmoPvl908FlpT3/aaQ/lPjjAR97ZkR/qeq3tyHTCcLtFTOebNfQVi+Js8tXoZrwzF4tejNmhsz488zd/rMdXi1Ie9xiKM3vFFXEVRFEVRFEVRFEVRFEVRFEVRFEVRFEVRFEVRFKUM/gOV5lkyfDlNrAAAAABJRU5ErkJggg==;" vertex="1" parent="1">
          <mxGeometry x="1490" y="100" width="20" height="20" as="geometry" />
        </mxCell>
        <mxCell id="sFc8jUiMXnoDbdj5g7ks-167" value="https://elearning.nust.na" style="text;html=1;align=center;verticalAlign=middle;resizable=0;points=[];autosize=1;strokeColor=default;fillColor=none;" vertex="1" parent="1">
          <mxGeometry x="2150" y="95" width="150" height="30" as="geometry" />
        </mxCell>
        <mxCell id="sFc8jUiMXnoDbdj5g7ks-168" value="" style="shape=image;verticalLabelPosition=bottom;labelBackgroundColor=default;verticalAlign=top;aspect=fixed;imageAspect=0;image=data:image/jpeg,/9j/4AAQSkZJRgABAQAAAQABAAD/2wCEAAkGBw0QDQ0SEg0NEhISDQ0NEhINDQ8NDxUNFREWFhUVExUkHSsiGBslHhcVLTEhMSktLi4uFyEzODMsNygwOj4BCgoKBQUFDgUFDisZExkrKysrKysrKysrKysrKysrKysrKysrKysrKysrKysrKysrKysrKysrKysrKysrKysrK//AABEIAOEA4QMBIgACEQEDEQH/xAAbAAEBAQADAQEAAAAAAAAAAAAACAcBAwYFAv/EAD0QAAICAQEFAwoEBAUFAAAAAAABAgMRBAUHITFBElFTBhMUFlVhcZKU0iNCcoEkMlKRCCIzscFDYmOCsv/EABQBAQAAAAAAAAAAAAAAAAAAAAD/xAAUEQEAAAAAAAAAAAAAAAAAAAAA/9oADAMBAAIRAxEAPwDcAAAAAAAAAAAAAAAAAAAAAAAAAAAAAAAAAAAAADj7gOIAAAAAAAAAAAAAAAAAAAAAAAAAAAAAAAAAAAAAAGfcBkAAAAAAAAAAAAAAAAAAAAAAAAAAAAAAAAAAAAAADKAygAAAAAAAAAAAAAAAAAAAAAAAAAAAAAAAAAAAAAAMAYAAAAAAAAPE+UG9XYmiulTPUTssjJxmtNW7lCSeGpS4LK6rOVgD2wPieS/lZs7aVcp6TURs7OO3Bpwthnl2oPilz48njmfbAAAAAAAAAAAAAAAAAAHzdv7e0egod2qvhVXnsrtZcpS59mEVxk/ckB9IHgdm74NgX3Kv0myrLwp6il11N++XFR+Lwj3qaeGuXNY45QHIAAAABgDHvAAAAADF98G9LzXndBoLfxONeo1Fb/k6Oqp/198vy8lx5A3wb0vNed0Ggt/E416jUVv+To6qn/X3y/LyXHlgoAHrd1W07tNt3Zzrb/F1NelnFZxKm2ShLPellP4xXcVqYpuT3b2VTq2lq4uMuy3paZLEkpRa87YunBvC9+e42sAAAAAAAAAAAAAAAAATNv8Adp3W7cspk5KvTU0V1Lj2fxK42Tkl3tyxn/sXcUyZfvl3dS2jBavTLOqqq7Eq/GpTbSXdNZeO/OO4CbTXt0G9F6V16HXWN6ZtQovm+ND6Qm/C7n+X9PLI7ISjJqSakm4tSTTUlwaa6M/IFwpppYfDGcrlj3HJPe6Dei9L5vQ62z+GbUKL5vLofSE34fc/y/p5UGmmlhp5Wcrisd4HIAAYfeBx9wAAGW79fLS/QaanS6ebhdqlY52R4Thp1wfYfSUm8Z6JPk8MD5O+Del5rzug0Fv4nGvUait/ydHVU/6++X5eS48sFAAG4bn91q/C1+vr/ps02nsX7q21f7R/dmHnb6RZ4k/mYFuZGSI/SLPEn8zHpFniT+ZgW5kZIj9Is8SfzMekWeJP5mBbmRkiP0izxJ/Mx6RZ4k/mYFuglbdxvB1uztZTGd9lmknZCu6q2yUoRg3h2V5/lks54c8YZVIAAnHfJvA1l+v1GjovnVptPN0S8zNwlbdHhZ5xrnFPKUeXDPPkFHZOMkR+kWeJP5mPSLPEn8zAtzIyRH6RZ4k/mY9Is8SfzMC3MjJEfpFniT+Zj0izxJ/MwKG3u7sI61T1mjglq0u1bVHCV6S5rus/3+JO04OLakmmm4tSTTUlwaa6H79Is8SfzM6223l/Hj3gcGvboN6L0rr0Otszp21Ci+b/ANB9ITfh9z/L+nlkIAuGLWE0854prjlHJiG4Dy0vsnLZt83OMaXbpZS4yjGLXaqz1jh5XdhrljG3gOIGfcABjv8AiF8l776dNraoSn6PCyq9RWZRob7Ssx/TF9rPd2s8kzYjhpYaazng0+qAh4Gvb391r0vnNdoa86d5nfRBZ8w+s4Lw+9fl/TyyEAAbnuj8pdka1Q0es2fs5apJRqtlo9Olel0f+X/U/wDr4gYYCyvVTZPszZ/0dH2j1U2T7M2f9HR9oEagsr1U2T7M2f8AR0faPVTZPszZ/wBHR9oEagsr1U2T7M2f9HR9o9VNk+zNn/R0faBLHkJ5K6jamvqprrk61OEtRZxUK6M/5m33tJ4XVlfpYOnSaSmmChVVXXBcoVVxrjn4JYO4AS5vk8lNRotq6m91y9H1V89RXYsuPnJtynXJ9JKXa4dVh95UZ130wshKM4RnGSw4zipxa96fBgRCCyvVTZXszZ/0dH2j1U2T7M2f9HR9oEagsr1U2T7M2f8AR0faPVTZPszZ/wBHR9oEagsr1U2T7M2f9HR9o9VNk+zNn/R0faBGoKK3pbc2Jsqp1VbN2ZZrbI5hB6PTyjVF/wDUsXZ/tHr8CeLbHKUpPGZScnhKKy3l4S4ID8AGjbqd2tm1LFqNQpQ0MJcXxjK+afGFb6R75fsuOcB97/D15L3S1Vm0JwlGmuqymmUljzl0uEnHvUUmm++WOjN+OrS6auquFdcIwrhGMIQhFRjGCWEkuiO0BkDKAAAAcNJp5SeVjD4rBPm9/dc9L5zXaGv+GeZ30QWXQ+s4Lw+9fl/TyoQ4aTTyuGMYfLHvAh4/UJuLTTaaaknF4aa5NPozXN7+656V2a7Q150zbnfRBcaH1nBeH3r8v6eWQgUduf3l+nqOi1cv4uMH5ux8PP1xWXn/AMiSbfek30ZqhIu7Ci6zbuy1VntLWVWSx4MH2rc+7sKX9yugAAAAAAAAAAAAAAAAB4LepvCr2RQq6+zPWXQcq4vjGuGWvO2LuynhdWn3M96TDv6090dv3ynnsWUaadOeXmlWotL/AN42f3A8FrtZbfbZbbZKyyyTnOc3mUpPqzoBo26ndtZtSxajUKUNDCXF8YyvmnxhW+ke+X7LjnAN1O7Wzali1GoUoaGE+L4xnfNPjCt9I98v2XHOKX0mmrqrhXXCMK4RjCEIRUYxglhJLoNLpq6q4V1wjCuEYwhCEVGEYJYSS6I7QAAAZQHAAAAAAAHDSeV05PPFNGXbf3H7L1F8rKLrtL2pOUq64xspTby+xF8Y/DOF0SNSAHkvIfd7s/ZPblSp2XTj2J33NOzsZz2YpLEY5/vhZbwj1oAAAAAAAAAAAAAAAAAA895Z+Rug2rRGvUwl2oNuq2pqN1bfPsvGGnwymmuC6pHoQBkuzdw2za7VK7V6m6CefNYjSn7pSXHHwwarpdNXVXCuuEYVwjGEIQiowjBLCSXRHaAAAAAABgDAAAAAAAAAAAAAAAAAAAAAAAAAAAAAAAAAAAAAAAGPewMe8AAAAAAAAAAAAAAAAAAAAAAAAAAAAAAAAAAAAAADiBxAAAAAAAAAAAAAAAAAAAAAAAAAAAAAAAAAAAAAAAz7gM/EAAAAAAAAAAAAAAAAAAAAAAAAAAAAAAAAAAAAAADtAZADr+w6gAH0EgAEuQfIAAggACC6gAFzY6/sAA6h9AADEuQAB8h0AAIRAALr8QuoADqOoAB9BL/kABIMAD8gAD//2Q==;imageBorder=none;" vertex="1" parent="1">
          <mxGeometry x="2090" y="95" width="35" height="35" as="geometry" />
        </mxCell>
        <mxCell id="sFc8jUiMXnoDbdj5g7ks-169" value="" style="shape=image;verticalLabelPosition=bottom;labelBackgroundColor=default;verticalAlign=top;aspect=fixed;imageAspect=0;image=data:image/png,iVBORw0KGgoAAAANSUhEUgAAAOEAAADhCAMAAAAJbSJIAAAAflBMVEX///8UFBQAAAAREREMDAwPDw/p6enw8PD8/PwKCgpeXl6Dg4Pf39/o6OihoaHl5eXHx8eZmZmysrJ+fn6/v7/Z2dm1tbVzc3NqamosLCyIiIg5OTlWVlb29vZjY2PBwcEiIiKmpqbNzc0yMjJMTExBQUEaGhp4eHhDQ0OTk5O34VtLAAAH0klEQVR4nO2dZ3fyOgyAi5wACaNswgiFMkr//x+8BPpCQHISQHLgHj1fe4qs2Nby+vhQFEVRFEVRFEVRFEVRFEVRFEVRFEVRFEVRFEVRlBT1ZmfUbYyjRRiGi2jc6I46zXrZjeKi+vW7WALFcvH7VS27eU/S6o2PuvgVCv/4t/GoVXYzH6XZXR8UMKRy12quu82yG3s/1UQ9L0e7f3gAs+579WQnLK7eWcmwU3azi1JfHbrvLvVOHEbr6i3sa9u/s/vSHem3y25+Liub4SzGwe6sylYhk87kKf0SDCy/ylbDSit8eHym8WD+WbYqNO2H7AsFQLdsZQham1znXhwD25frxh5bB54A6JWt0jVjxg48YSAqW6kU1QlvB56AycuM1G8IBBSsVAJ4kTiuV8gHGi9IpYaBX2RU+6/h/ru5U9B4iU7rTTRtr3q91ao9jTaTRM9c72lewW1Mc6agSfK/Rq9Zu/m/2rDXn+TnjzAtRasUjWwFkxx+YK9UVEcR5LgZ6DvUhqCf1bxDGB3l24pOlB2sl6vib4aCASzbcaFfiduTLGtc5kBd2RX0YTa645cG2wyzA6UljV9WBQ8p0D36JQzWdqMDA5H259K0Tp/HcgN7bmKglFpcvLTMHQPzx+q8tYWtG4NdsRnNy9zyxZ/JCka2boQ5Y8sL0rW1ZXvr2++htrH97C9bywsypFtinvZeU8tIhW+WdhdnSRp3nyFvHdEGzFu6raXSwZrHku5YkjG3sQ09Rj0Ysvx6M6BV5Pn1YsyoJnhsXuuTDHC8CdPPF6BNdaEPfEWHT3IuuoveapR8wzqIhpRFNfCMI7oHMmVijh0HpAxHxuaT+r7sHplKzAzjRMhiTMiGBbuYkBLjpIbaIiT7ApFxvCMMqpMk44f6thIh1TclaCwg6IaYktsQEUUETgbkN+AQOYW/kxFVJ4JfBznGDvtCkFq0JcokPgjJyhIKGzFpRJYtXrNZEDLlIuImIU04268RIvld4QXqg8qGbj1CoqSL+iTkya5H4YkBoahAHNkEctP+IxmkKCQVrp8Qbl90mOKIP5gJikvAyTbcW06/Bxx0i2eleG1ENPyeIHcvnpTiieELVt2wZXNQi8a2RtB6Y1/hYF/PyKVQXL5wEOrjIEMwhUJ2zZO2pAmbW6nBVkpUHNxOeqHE8BpUsZGrueE42MnibMedqcGZE7g4QoCrCmI+H5W6jXg6egR5YbEwA9VNZIPgMyiFgh8hScj3OjE0xMYysS+7vi0MOVoqQYGGtxaShCJER/tckDH1l0KSsE1zs2aJckRTkdl8UncZAqdBK85SLp8IEPmXgqgiDJHSyITDVReCwjlO/ggNZVbZCA35B0uD2KH//9KwDXiHPhEPO9OQf5QOoOLfulm8t0VIQyeW5uj7blJc7C2ELA3hLfj94WlEwjbt8JDHN4FQgog15K8G/6VKEKQ+HqrUSCyqH/FRFiMQtf2Fhl4qB0SLsr7U7ihUppE40fIvGTSXLfqoACZWaMd5msAOnvn5M0JYt8mVWg3CedqeX0hq4QAmJ5M5Q1mbVF5KLCHwC0kXEoKjKSNsuNQSIl7pEkgursyKSZw/EdJIbY0g4kP+otfNAh78EEt6ciU+g9wFf0nodqDAHG3CEnOHRH1doJyAgtDA5To33hHJPxGJ3R5IqNxhNmJG8Pv8AhrKFcBw/iSwDFTJPTctue5MbBtgH6b7vKPvcotrH9SxZv45EeUNU9FKO/b5/o5720DO2emDhpL3EMR4krA7fduhuH8YED0AhYcQeyaDdybcfFLZ3ezU9lLmIJHa3n0lT3axpO6hYcrdiZaTjZdByisOQZyXYZ6J2OleS5NesyS+MPdG9hwNQ+mTllvskJn3z3vZl4HAWniXErFLmDlfIw83pqVJHwkmznXx7tYn9nZfg8r+zFDHK1lF5t14U5E+HFQnOpH1eGVeUHNUcS95yQLVgmDCJ5Ga6VjFneAeAiI4ZS3S5gU1f99Ucrs3eS0NnycmDspQGMlDXmvKnrNZG+oIJ4ngUQ96HHFtTo5zXH5K4kTM+dN5OJeKy8K3vAZizp84O1NJZgbPekJeUJNC7lY+2qIzTX7qFLeN56+LubMVLMFGbqXmWuRGxvnHlmuwYPZ8MZO8dsOGH4DQBkKbX4bnqwz5QY3xzxdp7vZRfyqTMtru2zMwfnLY4M35f798uSB0son63VFnKHvqyprlwO65brwOai56BevNot8+6BU7ulCpPrOp6MP8mWJ/Uqm5jMPKeh/2271Os+ZKsVRLKta7DgF+Hg834uTNj+U2bCR6Vcu4i+5MM+N+1YOOD+96+262StUrBXkV0EXH+evekF+Y7+zLVQEaLi/oEqGTfRG0OViKn9F7Pwj0nXej8/GpnKj9xu8eDb38VCC57hr2Jd2z+jytgnfOBzB/FQt5L3XblZy3AGNFzjGNgo+vCF5lI82g4PMWojc+yFIt9kSJ+DUaknQLdaOjW/NkaO4LzMZXebLiQQo8NvNqz8fcS9zI0/GNTc0f1XG2jk6vyhXic5zxmoPvl908FlpT3/aaQ/lPjjAR97ZkR/qeq3tyHTCcLtFTOebNfQVi+Js8tXoZrwzF4tejNmhsz488zd/rMdXi1Ie9xiKM3vFFXEVRFEVRFEVRFEVRFEVRFEVRFEVRFEVRFEVRFKUM/gOV5lkyfDlNrAAAAABJRU5ErkJggg==;" vertex="1" parent="1">
          <mxGeometry x="2130" y="102.5" width="20" height="20" as="geometry" />
        </mxCell>
        <mxCell id="sFc8jUiMXnoDbdj5g7ks-170" value="" style="shape=image;verticalLabelPosition=bottom;labelBackgroundColor=default;verticalAlign=top;aspect=fixed;imageAspect=0;image=data:image/png,iVBORw0KGgoAAAANSUhEUgAAAOEAAADhCAMAAAAJbSJIAAAAgVBMVEX///8AAADNzc2Tk5MYGBju7u74+PiWlpahoaHMzMzx8fEJCQnb29vq6urg4ODW1tbCwsKqqqpeXl5GRkY6Ojq9vb1VVVVzc3NsbGx/f3+3t7cpKSlMTEyGhoawsLBBQUEeHh4jIyOEhISmpqY0NDRbW1tkZGRQUFBwcHATExMtLS1yMC8eAAAKL0lEQVR4nO1d7WKyPAwVnKKo+I1zKuqm7tH7v8DXCYEW0tLSIpSX85NCzLFfaZqmnc7b0B86193duu+uzrD/vp99G8Ybi8RmXLVCmjH5tNL4nFStlE7MM/z+MK9aLX3YoASfTbVqxXThxiBoWbeqVdODbBckOmPVyumAQxA6LbqD7uJEPHGqVk8dU6LC7OiZTVTrtFLtdGAPVM428dQ+w+PfyjTThBkwWdFmTH8FBbOKNNOFPU7wSfESlewr0UsbPKiprJE2hiKvAr30YRCxOCBlh6hs8HatdGIZseghZb1GNFPugAl99M06acWE2xChCZu8yIDpfo2Wrhsw6dsRhyFaOoxKbbTUDABDfFafNYAhzHkBWhow50pz0I84fKOl26jUaLfUR8hhhBaOwsKPN+ukF+C/wDoidEOzfRkwIRyRsiN3KjEGYF53MyVdKKpAK50A8zoznAZs7mYB7La05TaIn5tss70QN0bLTxaCnh8/bYArKnZXWNZy7vX7fW++TB6tqlZPA5J2isH4NvqHIYcgbpIbBzbFhhB8DiwPlN/DbB8Uhf4WIbg12uLOYJzen7mZvGbCMXEuMb2V04gxNAtYTZjuyGcDnBomuy34aILriY+WofloGZqPlqH5aBmaj5ah+WgZmo+WofloGZqPlqH5qL2fxu2pwYU977WyJP3kvGDjr3YfirhHDO+qgnYrfxNodCl7hw+rjvg46CE5POb/VmU4qjuXp8v8n6kUS8Vhi3ViqU7YKvDzzlVrL4RT4X3IWb7wmqDgXvIXLeW4+e7WBd+b1PD3VYQgtft+W9dtw7a/pg79FahF4kSWdSjBhtAA90DoKB0s7p7jbxf1DSjwFrGWO9laSLbd632kJYmPkzysmQyjdY/+TDSVM29GxT6rAjFFPNSagR/4yoQD5fFR+B+Jj+CkrhkHkWHMOIl/AitVQ84JwJkHiTHjalAb/QO004XoBxARejKjCp+VCL0KO+aIARqpOTHmEGotOvJDIGF9bZk04Lix6FIxWtabFIIdBZMLHriFocmMqSIETBhiIwcwrLdBSmMgxRAadf0NtgRguokNHbAyNCnMHJbrYqtE/uHdekJuz6f2+ycI5HRuGdYRLUOVt+uBlqHK2/VAy1Dl7XqgZajwdt/+CgbBl63f4SEluSyGE2dnAR5aj6PJSi6H4TSd01LbkcJxRnLemkGO4VTo7fKOhaKSv/mSgSH/n+ivndt+uVzCAXouw/EOUcOydureKw+XzD80DAxXT/33Nwfdz7UzeVR5DNnHs1VHYJspmbdezXy1SOsxuWYlcnTlHbFXo8gmyJWMfHalxqd19gWeQA97PYbKmMqVPGJLRv8YYhtjgJVzGBKpLn5fAXTj4Dd5pOJnvXAlY3l8OAwTb2GAFrMZJnlz/WR+GOtIV4JK9q75khmNO0qKM8ZLmQzd7H/0QtISRDdI0ujlSmaFI7C6b/g/kcE3K4HZgpk2KA4xwnJ5iiCWnA4ACvIkk7MF0YesJfW1tQmnnJwZP96PZKd+Krgt537kSmY5tekZ30sCDv9qIaY8TL3NYAjj7gUpA1nF3OUgGRuqHnzJaZ3j6WxF9EKb9XYKIinYigVEbgUkM5K7ZXSOO+Y47sUO+20aUbd9YGWQ/rjYhLFiN464EhkTRlZnaNeDDsRNuZy3SfRGvGpSSYUIHZwreYSP01mdYcRfdCI71+e9TQKsDjydJQynReYLCB/AIylhQMQNcETnaH7eQfRTl/s2AY9bCj28yEpxzJUMWgkzjJrpCNL+DbhvI3rgHMTWaTj4s9RU6HeJb2GAkWbI3z+FOiyyTATJ+CqJvweqkyH0FtxEBMOySMitKyQZX1/oZAihtfj1IpGRfC80lkaHhq5oabRAZwTK6mQYh4RhwyVUsHD4FQWYuLBqAqMcp6+XITQXLDcwmM7F1k8gGTOvv/mStTLk3GngsYtEICKZMQ1pZRivtnaZKysggK7oXQCQaP+ckQz+N9YqXy/DOOx4Sfd6Nz4EVjQSJ18yy9+ml2GyZD6TPziM/ZzLAuRSkneU5DM8ZjpqNDMk3B4LMF5IF39x535hyZoZ0r65m+M4C/KBSjwcJXnxlHwTk6ybYeefxcY/BYKFJWtn2EFc5PDHKxFMpv0sfM5X+hky/2v1oFTWNW3ctlECwxKvNMQl4ytujs7KDDuT7KV/mq6lRC68vOVILoXhc2yntzI1Xi0qfWlpSQyfmHX3p/voftofdEcUzw6R5K6I5PIYvlDewRNhySUzrAFahs1mKOsvrSd4/lJZn3c9wfN5y+5b1BPsfYtb3Fy7nLeLYjoI8h2nbjBQv1qOt/ckvX8ojpd1nncu5eUlV7bXefuH0nvAwoicg3y/m5cZ6AqBtwdMpDCJ9vF1MYRdeZ5RCS3orvhbtM5esrZ7bdUReZJO/mKx2FNvF0ectYC9pIqjJKSyBSAAhvun/j5xK3boFJONpxFF8s/tGVuCSbhTcfdcJIrBIWo/sjFRgiDzvxwzg6obkHE8qqMpPyaKSBKhlWFqsX45zO2e+4eePT9cqDJl1wDOkEgjIRmbKAoHE4tA/d6uvNjETmfiZ1/QYNMw2n8KfBeMEHLjS5+YZtx4Oqw2RrA0ibMO50d+jPAf3Fn3dv31fRgB9Nil3fRvp1A0yo8GMFz6/u/11p3xjUWxWH1hTLDQe8BW0yENuRgQ7WsL9+eC0tv9aMshVv25p0nw+RgR5EaPzy+dZ2yqZ/iH3thezwfOYL62p0WjiFmoB8My0TJUebseaBmqvF0PtAxV3q4HWoYqb9cDLUOVt+sBuRxDzc8T1fxcX83P1wYM1QLU3gu5nHvNz5sYR42bk/sSNiaw6HoMzc9fam4OWmHXj2l5hGHfRTy2tfm5oJufz/t/kJPdyLz6crEA5tyNkGx9SlZG4++36LhJQIOvc4NBL4iNXfnJm4zQOOjeZtCDHnnPTIF9Vuq2p8913SpysqYi+guNiKn7npa37WEwk6vN6XrglIDu9qbjvidGvquNcHvvv+9SwcIOl8kDEye4qMKPvpSBh0IPQtPfjURq0ftFviwHion+pqusSEaOGBJ4lFUZOKqH386ydzzmtYrJHlGlFCz1WJXjQ6oic8S+qwIvmu4hfcELtosLXAXLj0PzkAAy3bhfFtugBDdSf5I9nJEBdZJ3tO6XA/3kQri5DOkeqHJDaDXIZUjNgWeTNj4i5DCkQzi15KN9N/gMqQq8G1iBHT7DCWXEmNcDQ3AYGt8DQzAZ9qgeKL78qB1YDKlw7pOxFdhhMWzAEBoDZUj3wPr7V7lAGPYaVIEdjCFVgUb3wBBphnSec+MrsJNh2AQjJgWKYY9aRgh4NkwAyZCqwF0jKrBDMmxeDwwBDB3KHd6MHhjCJY+9xBVYtVY6gTDcGW7EpJBl2JweGCLNcNSgHhgixbBRPTAExdDchTwHJMOm9cAQbuzXP5kU5i4Dv7k9MILdLCsUw/TXOpkTWPvCf+awgNMsl7DZAAAAAElFTkSuQmCC;" vertex="1" parent="1">
          <mxGeometry x="2570" y="120" width="30" height="30" as="geometry" />
        </mxCell>
        <mxCell id="sFc8jUiMXnoDbdj5g7ks-172" value="" style="shape=image;verticalLabelPosition=bottom;labelBackgroundColor=default;verticalAlign=top;aspect=fixed;imageAspect=0;image=data:image/png,iVBORw0KGgoAAAANSUhEUgAAAOEAAADhCAMAAAAJbSJIAAAAgVBMVEX///8AAADNzc2Tk5MYGBju7u74+PiWlpahoaHMzMzx8fEJCQnb29vq6urg4ODW1tbCwsKqqqpeXl5GRkY6Ojq9vb1VVVVzc3NsbGx/f3+3t7cpKSlMTEyGhoawsLBBQUEeHh4jIyOEhISmpqY0NDRbW1tkZGRQUFBwcHATExMtLS1yMC8eAAAKL0lEQVR4nO1d7WKyPAwVnKKo+I1zKuqm7tH7v8DXCYEW0tLSIpSX85NCzLFfaZqmnc7b0B86193duu+uzrD/vp99G8Ybi8RmXLVCmjH5tNL4nFStlE7MM/z+MK9aLX3YoASfTbVqxXThxiBoWbeqVdODbBckOmPVyumAQxA6LbqD7uJEPHGqVk8dU6LC7OiZTVTrtFLtdGAPVM428dQ+w+PfyjTThBkwWdFmTH8FBbOKNNOFPU7wSfESlewr0UsbPKiprJE2hiKvAr30YRCxOCBlh6hs8HatdGIZseghZb1GNFPugAl99M06acWE2xChCZu8yIDpfo2Wrhsw6dsRhyFaOoxKbbTUDABDfFafNYAhzHkBWhow50pz0I84fKOl26jUaLfUR8hhhBaOwsKPN+ukF+C/wDoidEOzfRkwIRyRsiN3KjEGYF53MyVdKKpAK50A8zoznAZs7mYB7La05TaIn5tss70QN0bLTxaCnh8/bYArKnZXWNZy7vX7fW++TB6tqlZPA5J2isH4NvqHIYcgbpIbBzbFhhB8DiwPlN/DbB8Uhf4WIbg12uLOYJzen7mZvGbCMXEuMb2V04gxNAtYTZjuyGcDnBomuy34aILriY+WofloGZqPlqH5aBmaj5ah+WgZmo+WofloGZqPlqH5qL2fxu2pwYU977WyJP3kvGDjr3YfirhHDO+qgnYrfxNodCl7hw+rjvg46CE5POb/VmU4qjuXp8v8n6kUS8Vhi3ViqU7YKvDzzlVrL4RT4X3IWb7wmqDgXvIXLeW4+e7WBd+b1PD3VYQgtft+W9dtw7a/pg79FahF4kSWdSjBhtAA90DoKB0s7p7jbxf1DSjwFrGWO9laSLbd632kJYmPkzysmQyjdY/+TDSVM29GxT6rAjFFPNSagR/4yoQD5fFR+B+Jj+CkrhkHkWHMOIl/AitVQ84JwJkHiTHjalAb/QO004XoBxARejKjCp+VCL0KO+aIARqpOTHmEGotOvJDIGF9bZk04Lix6FIxWtabFIIdBZMLHriFocmMqSIETBhiIwcwrLdBSmMgxRAadf0NtgRguokNHbAyNCnMHJbrYqtE/uHdekJuz6f2+ycI5HRuGdYRLUOVt+uBlqHK2/VAy1Dl7XqgZajwdt/+CgbBl63f4SEluSyGE2dnAR5aj6PJSi6H4TSd01LbkcJxRnLemkGO4VTo7fKOhaKSv/mSgSH/n+ivndt+uVzCAXouw/EOUcOydureKw+XzD80DAxXT/33Nwfdz7UzeVR5DNnHs1VHYJspmbdezXy1SOsxuWYlcnTlHbFXo8gmyJWMfHalxqd19gWeQA97PYbKmMqVPGJLRv8YYhtjgJVzGBKpLn5fAXTj4Dd5pOJnvXAlY3l8OAwTb2GAFrMZJnlz/WR+GOtIV4JK9q75khmNO0qKM8ZLmQzd7H/0QtISRDdI0ujlSmaFI7C6b/g/kcE3K4HZgpk2KA4xwnJ5iiCWnA4ACvIkk7MF0YesJfW1tQmnnJwZP96PZKd+Krgt537kSmY5tekZ30sCDv9qIaY8TL3NYAjj7gUpA1nF3OUgGRuqHnzJaZ3j6WxF9EKb9XYKIinYigVEbgUkM5K7ZXSOO+Y47sUO+20aUbd9YGWQ/rjYhLFiN464EhkTRlZnaNeDDsRNuZy3SfRGvGpSSYUIHZwreYSP01mdYcRfdCI71+e9TQKsDjydJQynReYLCB/AIylhQMQNcETnaH7eQfRTl/s2AY9bCj28yEpxzJUMWgkzjJrpCNL+DbhvI3rgHMTWaTj4s9RU6HeJb2GAkWbI3z+FOiyyTATJ+CqJvweqkyH0FtxEBMOySMitKyQZX1/oZAihtfj1IpGRfC80lkaHhq5oabRAZwTK6mQYh4RhwyVUsHD4FQWYuLBqAqMcp6+XITQXLDcwmM7F1k8gGTOvv/mStTLk3GngsYtEICKZMQ1pZRivtnaZKysggK7oXQCQaP+ckQz+N9YqXy/DOOx4Sfd6Nz4EVjQSJ18yy9+ml2GyZD6TPziM/ZzLAuRSkneU5DM8ZjpqNDMk3B4LMF5IF39x535hyZoZ0r65m+M4C/KBSjwcJXnxlHwTk6ybYeefxcY/BYKFJWtn2EFc5PDHKxFMpv0sfM5X+hky/2v1oFTWNW3ctlECwxKvNMQl4ytujs7KDDuT7KV/mq6lRC68vOVILoXhc2yntzI1Xi0qfWlpSQyfmHX3p/voftofdEcUzw6R5K6I5PIYvlDewRNhySUzrAFahs1mKOsvrSd4/lJZn3c9wfN5y+5b1BPsfYtb3Fy7nLeLYjoI8h2nbjBQv1qOt/ckvX8ojpd1nncu5eUlV7bXefuH0nvAwoicg3y/m5cZ6AqBtwdMpDCJ9vF1MYRdeZ5RCS3orvhbtM5esrZ7bdUReZJO/mKx2FNvF0ectYC9pIqjJKSyBSAAhvun/j5xK3boFJONpxFF8s/tGVuCSbhTcfdcJIrBIWo/sjFRgiDzvxwzg6obkHE8qqMpPyaKSBKhlWFqsX45zO2e+4eePT9cqDJl1wDOkEgjIRmbKAoHE4tA/d6uvNjETmfiZ1/QYNMw2n8KfBeMEHLjS5+YZtx4Oqw2RrA0ibMO50d+jPAf3Fn3dv31fRgB9Nil3fRvp1A0yo8GMFz6/u/11p3xjUWxWH1hTLDQe8BW0yENuRgQ7WsL9+eC0tv9aMshVv25p0nw+RgR5EaPzy+dZ2yqZ/iH3thezwfOYL62p0WjiFmoB8My0TJUebseaBmqvF0PtAxV3q4HWoYqb9cDLUOVt+sBuRxDzc8T1fxcX83P1wYM1QLU3gu5nHvNz5sYR42bk/sSNiaw6HoMzc9fam4OWmHXj2l5hGHfRTy2tfm5oJufz/t/kJPdyLz6crEA5tyNkGx9SlZG4++36LhJQIOvc4NBL4iNXfnJm4zQOOjeZtCDHnnPTIF9Vuq2p8913SpysqYi+guNiKn7npa37WEwk6vN6XrglIDu9qbjvidGvquNcHvvv+9SwcIOl8kDEye4qMKPvpSBh0IPQtPfjURq0ftFviwHion+pqusSEaOGBJ4lFUZOKqH386ydzzmtYrJHlGlFCz1WJXjQ6oic8S+qwIvmu4hfcELtosLXAXLj0PzkAAy3bhfFtugBDdSf5I9nJEBdZJ3tO6XA/3kQri5DOkeqHJDaDXIZUjNgWeTNj4i5DCkQzi15KN9N/gMqQq8G1iBHT7DCWXEmNcDQ3AYGt8DQzAZ9qgeKL78qB1YDKlw7pOxFdhhMWzAEBoDZUj3wPr7V7lAGPYaVIEdjCFVgUb3wBBphnSec+MrsJNh2AQjJgWKYY9aRgh4NkwAyZCqwF0jKrBDMmxeDwwBDB3KHd6MHhjCJY+9xBVYtVY6gTDcGW7EpJBl2JweGCLNcNSgHhgixbBRPTAExdDchTwHJMOm9cAQbuzXP5kU5i4Dv7k9MILdLCsUw/TXOpkTWPvCf+awgNMsl7DZAAAAAElFTkSuQmCC;" vertex="1" parent="1">
          <mxGeometry x="1940" y="110" width="30" height="30" as="geometry" />
        </mxCell>
        <mxCell id="sFc8jUiMXnoDbdj5g7ks-173" value="Chatbot" style="text;html=1;align=center;verticalAlign=middle;resizable=0;points=[];autosize=1;strokeColor=none;fillColor=none;" vertex="1" parent="1">
          <mxGeometry x="1920" y="90" width="70" height="30" as="geometry" />
        </mxCell>
        <mxCell id="sFc8jUiMXnoDbdj5g7ks-174" value="" style="shape=image;verticalLabelPosition=bottom;labelBackgroundColor=default;verticalAlign=top;aspect=fixed;imageAspect=0;image=data:image/png,iVBORw0KGgoAAAANSUhEUgAAAOEAAADhCAMAAAAJbSJIAAAAgVBMVEX///8AAADNzc2Tk5MYGBju7u74+PiWlpahoaHMzMzx8fEJCQnb29vq6urg4ODW1tbCwsKqqqpeXl5GRkY6Ojq9vb1VVVVzc3NsbGx/f3+3t7cpKSlMTEyGhoawsLBBQUEeHh4jIyOEhISmpqY0NDRbW1tkZGRQUFBwcHATExMtLS1yMC8eAAAKL0lEQVR4nO1d7WKyPAwVnKKo+I1zKuqm7tH7v8DXCYEW0tLSIpSX85NCzLFfaZqmnc7b0B86193duu+uzrD/vp99G8Ybi8RmXLVCmjH5tNL4nFStlE7MM/z+MK9aLX3YoASfTbVqxXThxiBoWbeqVdODbBckOmPVyumAQxA6LbqD7uJEPHGqVk8dU6LC7OiZTVTrtFLtdGAPVM428dQ+w+PfyjTThBkwWdFmTH8FBbOKNNOFPU7wSfESlewr0UsbPKiprJE2hiKvAr30YRCxOCBlh6hs8HatdGIZseghZb1GNFPugAl99M06acWE2xChCZu8yIDpfo2Wrhsw6dsRhyFaOoxKbbTUDABDfFafNYAhzHkBWhow50pz0I84fKOl26jUaLfUR8hhhBaOwsKPN+ukF+C/wDoidEOzfRkwIRyRsiN3KjEGYF53MyVdKKpAK50A8zoznAZs7mYB7La05TaIn5tss70QN0bLTxaCnh8/bYArKnZXWNZy7vX7fW++TB6tqlZPA5J2isH4NvqHIYcgbpIbBzbFhhB8DiwPlN/DbB8Uhf4WIbg12uLOYJzen7mZvGbCMXEuMb2V04gxNAtYTZjuyGcDnBomuy34aILriY+WofloGZqPlqH5aBmaj5ah+WgZmo+WofloGZqPlqH5qL2fxu2pwYU977WyJP3kvGDjr3YfirhHDO+qgnYrfxNodCl7hw+rjvg46CE5POb/VmU4qjuXp8v8n6kUS8Vhi3ViqU7YKvDzzlVrL4RT4X3IWb7wmqDgXvIXLeW4+e7WBd+b1PD3VYQgtft+W9dtw7a/pg79FahF4kSWdSjBhtAA90DoKB0s7p7jbxf1DSjwFrGWO9laSLbd632kJYmPkzysmQyjdY/+TDSVM29GxT6rAjFFPNSagR/4yoQD5fFR+B+Jj+CkrhkHkWHMOIl/AitVQ84JwJkHiTHjalAb/QO004XoBxARejKjCp+VCL0KO+aIARqpOTHmEGotOvJDIGF9bZk04Lix6FIxWtabFIIdBZMLHriFocmMqSIETBhiIwcwrLdBSmMgxRAadf0NtgRguokNHbAyNCnMHJbrYqtE/uHdekJuz6f2+ycI5HRuGdYRLUOVt+uBlqHK2/VAy1Dl7XqgZajwdt/+CgbBl63f4SEluSyGE2dnAR5aj6PJSi6H4TSd01LbkcJxRnLemkGO4VTo7fKOhaKSv/mSgSH/n+ivndt+uVzCAXouw/EOUcOydureKw+XzD80DAxXT/33Nwfdz7UzeVR5DNnHs1VHYJspmbdezXy1SOsxuWYlcnTlHbFXo8gmyJWMfHalxqd19gWeQA97PYbKmMqVPGJLRv8YYhtjgJVzGBKpLn5fAXTj4Dd5pOJnvXAlY3l8OAwTb2GAFrMZJnlz/WR+GOtIV4JK9q75khmNO0qKM8ZLmQzd7H/0QtISRDdI0ujlSmaFI7C6b/g/kcE3K4HZgpk2KA4xwnJ5iiCWnA4ACvIkk7MF0YesJfW1tQmnnJwZP96PZKd+Krgt537kSmY5tekZ30sCDv9qIaY8TL3NYAjj7gUpA1nF3OUgGRuqHnzJaZ3j6WxF9EKb9XYKIinYigVEbgUkM5K7ZXSOO+Y47sUO+20aUbd9YGWQ/rjYhLFiN464EhkTRlZnaNeDDsRNuZy3SfRGvGpSSYUIHZwreYSP01mdYcRfdCI71+e9TQKsDjydJQynReYLCB/AIylhQMQNcETnaH7eQfRTl/s2AY9bCj28yEpxzJUMWgkzjJrpCNL+DbhvI3rgHMTWaTj4s9RU6HeJb2GAkWbI3z+FOiyyTATJ+CqJvweqkyH0FtxEBMOySMitKyQZX1/oZAihtfj1IpGRfC80lkaHhq5oabRAZwTK6mQYh4RhwyVUsHD4FQWYuLBqAqMcp6+XITQXLDcwmM7F1k8gGTOvv/mStTLk3GngsYtEICKZMQ1pZRivtnaZKysggK7oXQCQaP+ckQz+N9YqXy/DOOx4Sfd6Nz4EVjQSJ18yy9+ml2GyZD6TPziM/ZzLAuRSkneU5DM8ZjpqNDMk3B4LMF5IF39x535hyZoZ0r65m+M4C/KBSjwcJXnxlHwTk6ybYeefxcY/BYKFJWtn2EFc5PDHKxFMpv0sfM5X+hky/2v1oFTWNW3ctlECwxKvNMQl4ytujs7KDDuT7KV/mq6lRC68vOVILoXhc2yntzI1Xi0qfWlpSQyfmHX3p/voftofdEcUzw6R5K6I5PIYvlDewRNhySUzrAFahs1mKOsvrSd4/lJZn3c9wfN5y+5b1BPsfYtb3Fy7nLeLYjoI8h2nbjBQv1qOt/ckvX8ojpd1nncu5eUlV7bXefuH0nvAwoicg3y/m5cZ6AqBtwdMpDCJ9vF1MYRdeZ5RCS3orvhbtM5esrZ7bdUReZJO/mKx2FNvF0ectYC9pIqjJKSyBSAAhvun/j5xK3boFJONpxFF8s/tGVuCSbhTcfdcJIrBIWo/sjFRgiDzvxwzg6obkHE8qqMpPyaKSBKhlWFqsX45zO2e+4eePT9cqDJl1wDOkEgjIRmbKAoHE4tA/d6uvNjETmfiZ1/QYNMw2n8KfBeMEHLjS5+YZtx4Oqw2RrA0ibMO50d+jPAf3Fn3dv31fRgB9Nil3fRvp1A0yo8GMFz6/u/11p3xjUWxWH1hTLDQe8BW0yENuRgQ7WsL9+eC0tv9aMshVv25p0nw+RgR5EaPzy+dZ2yqZ/iH3thezwfOYL62p0WjiFmoB8My0TJUebseaBmqvF0PtAxV3q4HWoYqb9cDLUOVt+sBuRxDzc8T1fxcX83P1wYM1QLU3gu5nHvNz5sYR42bk/sSNiaw6HoMzc9fam4OWmHXj2l5hGHfRTy2tfm5oJufz/t/kJPdyLz6crEA5tyNkGx9SlZG4++36LhJQIOvc4NBL4iNXfnJm4zQOOjeZtCDHnnPTIF9Vuq2p8913SpysqYi+guNiKn7npa37WEwk6vN6XrglIDu9qbjvidGvquNcHvvv+9SwcIOl8kDEye4qMKPvpSBh0IPQtPfjURq0ftFviwHion+pqusSEaOGBJ4lFUZOKqH386ydzzmtYrJHlGlFCz1WJXjQ6oic8S+qwIvmu4hfcELtosLXAXLj0PzkAAy3bhfFtugBDdSf5I9nJEBdZJ3tO6XA/3kQri5DOkeqHJDaDXIZUjNgWeTNj4i5DCkQzi15KN9N/gMqQq8G1iBHT7DCWXEmNcDQ3AYGt8DQzAZ9qgeKL78qB1YDKlw7pOxFdhhMWzAEBoDZUj3wPr7V7lAGPYaVIEdjCFVgUb3wBBphnSec+MrsJNh2AQjJgWKYY9aRgh4NkwAyZCqwF0jKrBDMmxeDwwBDB3KHd6MHhjCJY+9xBVYtVY6gTDcGW7EpJBl2JweGCLNcNSgHhgixbBRPTAExdDchTwHJMOm9cAQbuzXP5kU5i4Dv7k9MILdLCsUw/TXOpkTWPvCf+awgNMsl7DZAAAAAElFTkSuQmCC;" vertex="1" parent="1">
          <mxGeometry x="1310" y="110" width="30" height="30" as="geometry" />
        </mxCell>
        <mxCell id="sFc8jUiMXnoDbdj5g7ks-175" value="Chatbot" style="text;html=1;align=center;verticalAlign=middle;resizable=0;points=[];autosize=1;strokeColor=none;fillColor=none;" vertex="1" parent="1">
          <mxGeometry x="1290" y="90" width="70" height="30" as="geometry" />
        </mxCell>
        <mxCell id="sFc8jUiMXnoDbdj5g7ks-176" value="" style="shape=image;verticalLabelPosition=bottom;labelBackgroundColor=default;verticalAlign=top;aspect=fixed;imageAspect=0;image=data:image/png,iVBORw0KGgoAAAANSUhEUgAAAOEAAADhCAMAAAAJbSJIAAAAgVBMVEX///8AAADNzc2Tk5MYGBju7u74+PiWlpahoaHMzMzx8fEJCQnb29vq6urg4ODW1tbCwsKqqqpeXl5GRkY6Ojq9vb1VVVVzc3NsbGx/f3+3t7cpKSlMTEyGhoawsLBBQUEeHh4jIyOEhISmpqY0NDRbW1tkZGRQUFBwcHATExMtLS1yMC8eAAAKL0lEQVR4nO1d7WKyPAwVnKKo+I1zKuqm7tH7v8DXCYEW0tLSIpSX85NCzLFfaZqmnc7b0B86193duu+uzrD/vp99G8Ybi8RmXLVCmjH5tNL4nFStlE7MM/z+MK9aLX3YoASfTbVqxXThxiBoWbeqVdODbBckOmPVyumAQxA6LbqD7uJEPHGqVk8dU6LC7OiZTVTrtFLtdGAPVM428dQ+w+PfyjTThBkwWdFmTH8FBbOKNNOFPU7wSfESlewr0UsbPKiprJE2hiKvAr30YRCxOCBlh6hs8HatdGIZseghZb1GNFPugAl99M06acWE2xChCZu8yIDpfo2Wrhsw6dsRhyFaOoxKbbTUDABDfFafNYAhzHkBWhow50pz0I84fKOl26jUaLfUR8hhhBaOwsKPN+ukF+C/wDoidEOzfRkwIRyRsiN3KjEGYF53MyVdKKpAK50A8zoznAZs7mYB7La05TaIn5tss70QN0bLTxaCnh8/bYArKnZXWNZy7vX7fW++TB6tqlZPA5J2isH4NvqHIYcgbpIbBzbFhhB8DiwPlN/DbB8Uhf4WIbg12uLOYJzen7mZvGbCMXEuMb2V04gxNAtYTZjuyGcDnBomuy34aILriY+WofloGZqPlqH5aBmaj5ah+WgZmo+WofloGZqPlqH5qL2fxu2pwYU977WyJP3kvGDjr3YfirhHDO+qgnYrfxNodCl7hw+rjvg46CE5POb/VmU4qjuXp8v8n6kUS8Vhi3ViqU7YKvDzzlVrL4RT4X3IWb7wmqDgXvIXLeW4+e7WBd+b1PD3VYQgtft+W9dtw7a/pg79FahF4kSWdSjBhtAA90DoKB0s7p7jbxf1DSjwFrGWO9laSLbd632kJYmPkzysmQyjdY/+TDSVM29GxT6rAjFFPNSagR/4yoQD5fFR+B+Jj+CkrhkHkWHMOIl/AitVQ84JwJkHiTHjalAb/QO004XoBxARejKjCp+VCL0KO+aIARqpOTHmEGotOvJDIGF9bZk04Lix6FIxWtabFIIdBZMLHriFocmMqSIETBhiIwcwrLdBSmMgxRAadf0NtgRguokNHbAyNCnMHJbrYqtE/uHdekJuz6f2+ycI5HRuGdYRLUOVt+uBlqHK2/VAy1Dl7XqgZajwdt/+CgbBl63f4SEluSyGE2dnAR5aj6PJSi6H4TSd01LbkcJxRnLemkGO4VTo7fKOhaKSv/mSgSH/n+ivndt+uVzCAXouw/EOUcOydureKw+XzD80DAxXT/33Nwfdz7UzeVR5DNnHs1VHYJspmbdezXy1SOsxuWYlcnTlHbFXo8gmyJWMfHalxqd19gWeQA97PYbKmMqVPGJLRv8YYhtjgJVzGBKpLn5fAXTj4Dd5pOJnvXAlY3l8OAwTb2GAFrMZJnlz/WR+GOtIV4JK9q75khmNO0qKM8ZLmQzd7H/0QtISRDdI0ujlSmaFI7C6b/g/kcE3K4HZgpk2KA4xwnJ5iiCWnA4ACvIkk7MF0YesJfW1tQmnnJwZP96PZKd+Krgt537kSmY5tekZ30sCDv9qIaY8TL3NYAjj7gUpA1nF3OUgGRuqHnzJaZ3j6WxF9EKb9XYKIinYigVEbgUkM5K7ZXSOO+Y47sUO+20aUbd9YGWQ/rjYhLFiN464EhkTRlZnaNeDDsRNuZy3SfRGvGpSSYUIHZwreYSP01mdYcRfdCI71+e9TQKsDjydJQynReYLCB/AIylhQMQNcETnaH7eQfRTl/s2AY9bCj28yEpxzJUMWgkzjJrpCNL+DbhvI3rgHMTWaTj4s9RU6HeJb2GAkWbI3z+FOiyyTATJ+CqJvweqkyH0FtxEBMOySMitKyQZX1/oZAihtfj1IpGRfC80lkaHhq5oabRAZwTK6mQYh4RhwyVUsHD4FQWYuLBqAqMcp6+XITQXLDcwmM7F1k8gGTOvv/mStTLk3GngsYtEICKZMQ1pZRivtnaZKysggK7oXQCQaP+ckQz+N9YqXy/DOOx4Sfd6Nz4EVjQSJ18yy9+ml2GyZD6TPziM/ZzLAuRSkneU5DM8ZjpqNDMk3B4LMF5IF39x535hyZoZ0r65m+M4C/KBSjwcJXnxlHwTk6ybYeefxcY/BYKFJWtn2EFc5PDHKxFMpv0sfM5X+hky/2v1oFTWNW3ctlECwxKvNMQl4ytujs7KDDuT7KV/mq6lRC68vOVILoXhc2yntzI1Xi0qfWlpSQyfmHX3p/voftofdEcUzw6R5K6I5PIYvlDewRNhySUzrAFahs1mKOsvrSd4/lJZn3c9wfN5y+5b1BPsfYtb3Fy7nLeLYjoI8h2nbjBQv1qOt/ckvX8ojpd1nncu5eUlV7bXefuH0nvAwoicg3y/m5cZ6AqBtwdMpDCJ9vF1MYRdeZ5RCS3orvhbtM5esrZ7bdUReZJO/mKx2FNvF0ectYC9pIqjJKSyBSAAhvun/j5xK3boFJONpxFF8s/tGVuCSbhTcfdcJIrBIWo/sjFRgiDzvxwzg6obkHE8qqMpPyaKSBKhlWFqsX45zO2e+4eePT9cqDJl1wDOkEgjIRmbKAoHE4tA/d6uvNjETmfiZ1/QYNMw2n8KfBeMEHLjS5+YZtx4Oqw2RrA0ibMO50d+jPAf3Fn3dv31fRgB9Nil3fRvp1A0yo8GMFz6/u/11p3xjUWxWH1hTLDQe8BW0yENuRgQ7WsL9+eC0tv9aMshVv25p0nw+RgR5EaPzy+dZ2yqZ/iH3thezwfOYL62p0WjiFmoB8My0TJUebseaBmqvF0PtAxV3q4HWoYqb9cDLUOVt+sBuRxDzc8T1fxcX83P1wYM1QLU3gu5nHvNz5sYR42bk/sSNiaw6HoMzc9fam4OWmHXj2l5hGHfRTy2tfm5oJufz/t/kJPdyLz6crEA5tyNkGx9SlZG4++36LhJQIOvc4NBL4iNXfnJm4zQOOjeZtCDHnnPTIF9Vuq2p8913SpysqYi+guNiKn7npa37WEwk6vN6XrglIDu9qbjvidGvquNcHvvv+9SwcIOl8kDEye4qMKPvpSBh0IPQtPfjURq0ftFviwHion+pqusSEaOGBJ4lFUZOKqH386ydzzmtYrJHlGlFCz1WJXjQ6oic8S+qwIvmu4hfcELtosLXAXLj0PzkAAy3bhfFtugBDdSf5I9nJEBdZJ3tO6XA/3kQri5DOkeqHJDaDXIZUjNgWeTNj4i5DCkQzi15KN9N/gMqQq8G1iBHT7DCWXEmNcDQ3AYGt8DQzAZ9qgeKL78qB1YDKlw7pOxFdhhMWzAEBoDZUj3wPr7V7lAGPYaVIEdjCFVgUb3wBBphnSec+MrsJNh2AQjJgWKYY9aRgh4NkwAyZCqwF0jKrBDMmxeDwwBDB3KHd6MHhjCJY+9xBVYtVY6gTDcGW7EpJBl2JweGCLNcNSgHhgixbBRPTAExdDchTwHJMOm9cAQbuzXP5kU5i4Dv7k9MILdLCsUw/TXOpkTWPvCf+awgNMsl7DZAAAAAElFTkSuQmCC;" vertex="1" parent="1">
          <mxGeometry x="680" y="110" width="30" height="30" as="geometry" />
        </mxCell>
        <mxCell id="sFc8jUiMXnoDbdj5g7ks-177" value="Chatbot" style="text;html=1;align=center;verticalAlign=middle;resizable=0;points=[];autosize=1;strokeColor=none;fillColor=none;" vertex="1" parent="1">
          <mxGeometry x="660" y="90" width="70" height="30" as="geometry" />
        </mxCell>
        <mxCell id="sFc8jUiMXnoDbdj5g7ks-178" value="Chatbot" style="text;html=1;align=center;verticalAlign=middle;resizable=0;points=[];autosize=1;strokeColor=none;fillColor=none;" vertex="1" parent="1">
          <mxGeometry x="2550" y="95" width="70" height="30" as="geometry" />
        </mxCell>
      </root>
    </mxGraphModel>
  </diagram>
</mxfile>
